<svg width="20" height="22" viewBox="0 0 20 22" fill="none" xmlns="http://www.w3.org/2000/svg">
<path d="M3 5.17847C2.86193 5.17847 2.75 5.2904 2.75 5.42847V13.5024C2.75 15.1143 4.39508 16.2033 5.87886 15.5737L8.53524 14.4466C9.47135 14.0494 10.5286 14.0494 11.4648 14.4466L14.1211 15.5737C15.6049 16.2033 17.25 15.1143 17.25 13.5024V5.42847C17.25 5.2904 17.1381 5.17847 17 5.17847H3Z" fill="#CA425A" stroke="#60040F" stroke-width="0.5" stroke-linejoin="round"/>
<path d="M17 5.42847H3V6.42847H17V5.42847Z" fill="#98293C"/>
<path d="M10.1002 0.699427C10.0363 0.67148 9.96368 0.67148 9.8998 0.699427L5.8998 2.44943C5.79137 2.49686 5.73107 2.61382 5.7553 2.72965C5.77953 2.84549 5.88166 2.92847 6 2.92847H14C14.1183 2.92847 14.2205 2.84549 14.2447 2.72965C14.2689 2.61382 14.2086 2.49686 14.1002 2.44943L10.1002 0.699427Z" stroke="#60040F" stroke-width="0.5" stroke-linejoin="round"/>
<path d="M2 2.67847C1.30964 2.67847 0.75 3.23811 0.75 3.92847C0.75 4.61882 1.30964 5.17847 2 5.17847H18C18.6904 5.17847 19.25 4.61882 19.25 3.92847C19.25 3.23811 18.6904 2.67847 18 2.67847H2Z" fill="#E9B145" stroke="#60040F" stroke-width="0.5"/>
<path d="M1.75 3.42847H18" stroke="#FFCB65" stroke-width="0.5" stroke-linecap="round" stroke-linejoin="round"/>
<path d="M2.25 3.42847H6.5" stroke="#FFEBC5" stroke-width="0.5" stroke-linecap="round" stroke-linejoin="round"/>
<path d="M2.5 4.67847L3.75 3.17847" stroke="#D19521" stroke-width="0.5" stroke-linecap="round" stroke-linejoin="round"/>
<path d="M7.75 4.67847L9 3.17847" stroke="#D19521" stroke-width="0.5" stroke-linecap="round" stroke-linejoin="round"/>
<path d="M4.25 4.67847L5.5 3.17847" stroke="#D19521" stroke-width="0.5" stroke-linecap="round" stroke-linejoin="round"/>
<path d="M9.5 4.67847L10.75 3.17847" stroke="#D19521" stroke-width="0.5" stroke-linecap="round" stroke-linejoin="round"/>
<path d="M6 4.67847L7.25 3.17847" stroke="#D19521" stroke-width="0.5" stroke-linecap="round" stroke-linejoin="round"/>
<path d="M11.25 4.67847L12.5 3.17847" stroke="#D19521" stroke-width="0.5" stroke-linecap="round" stroke-linejoin="round"/>
<path d="M13 4.67847L14.25 3.17847" stroke="#D19521" stroke-width="0.5" stroke-linecap="round" stroke-linejoin="round"/>
<path d="M14.75 4.67847L16 3.17847" stroke="#D19521" stroke-width="0.5" stroke-linecap="round" stroke-linejoin="round"/>
<path d="M16.5 4.67847L17.75 3.17847" stroke="#D19521" stroke-width="0.5" stroke-linecap="round" stroke-linejoin="round"/>
<path d="M4.5 5.17847C4.36193 5.17847 4.25 5.2904 4.25 5.42847V16.1581C4.25 17.7083 5.09404 19.1355 6.45247 19.8824L7.95247 20.707C9.2275 21.408 10.7725 21.408 12.0475 20.707L13.5475 19.8824C14.906 19.1355 15.75 17.7083 15.75 16.1581V5.42847C15.75 5.2904 15.6381 5.17847 15.5 5.17847H4.5Z" fill="#FF6480" stroke="#60040F" stroke-width="0.5" stroke-linejoin="round"/>
<circle cx="14.75" cy="18.1785" r="0.25" fill="#E34864"/>
<circle cx="13.5" cy="16.1785" r="0.25" fill="#E34864"/>
<circle cx="14.75" cy="15.4285" r="0.25" fill="#E34864"/>
<circle cx="11.75" cy="19.6785" r="0.25" fill="#E34864"/>
<circle cx="13.5" cy="18.6785" r="0.25" fill="#E34864"/>
<circle cx="12.375" cy="18.8035" r="0.375" fill="#E34864"/>
<circle cx="14.75" cy="16.6785" r="0.25" fill="#E34864"/>
<circle cx="13" cy="17.6785" r="0.25" fill="#E34864"/>
<circle cx="14.125" cy="17.3035" r="0.375" fill="#E34864"/>
<path d="M15.5 5.42847H4.5V6.42847H15.5V5.42847Z" fill="#DA435E"/>
<path d="M5 7.42847V16.971C5 17.7136 5.4114 18.395 6.06851 18.7408L9.75 20.6785" stroke="#FFABBA" stroke-width="0.5" stroke-linecap="round" stroke-linejoin="round"/>
<path d="M15 13.0535V10.491M12.625 19.4285L13.8125 18.8035" stroke="#FFABBA" stroke-width="0.5" stroke-linecap="round" stroke-linejoin="round"/>
<path d="M5 13.0535V10.491M7.375 19.4285L6.1875 18.8035" stroke="#FFDCDC" stroke-width="0.5" stroke-linecap="round" stroke-linejoin="round"/>
<path d="M10 16.6785C12.1014 16.6785 13.75 14.7433 13.75 12.4285C13.75 10.1137 12.1014 8.17847 10 8.17847C7.89862 8.17847 6.25 10.1137 6.25 12.4285C6.25 14.7433 7.89862 16.6785 10 16.6785Z" fill="#FDAEBC" stroke="#C83B54" stroke-width="0.5"/>
<path d="M6.75 12.4285C6.75 10.3574 8.20507 8.67847 10 8.67847" stroke="#FFDCDC" stroke-width="0.5" stroke-linecap="round" stroke-linejoin="round"/>
<path d="M10.9635 11.0437C11.0224 10.5929 10.6752 10.1785 10.211 10.1785H9.78903C9.3248 10.1785 8.97764 10.5929 9.03646 11.0437C9.04466 11.1066 9.05301 11.1728 9.06126 11.2413C9.07881 11.387 8.95856 11.5073 8.81286 11.4897C8.74434 11.4815 8.67815 11.4731 8.61525 11.4649C8.16439 11.4061 7.75 11.7533 7.75 12.2175V12.6394C7.75 13.1037 8.16439 13.4508 8.61525 13.392C8.67815 13.3838 8.74434 13.3755 8.81286 13.3672C8.95856 13.3497 9.07881 13.4699 9.06126 13.6156C9.05301 13.6841 9.04466 13.7503 9.03646 13.8132C8.97764 14.2641 9.3248 14.6785 9.78903 14.6785H10.211C10.6752 14.6785 11.0224 14.2641 10.9635 13.8132C10.9553 13.7503 10.947 13.6841 10.9387 13.6156C10.9212 13.4699 11.0414 13.3497 11.1871 13.3672C11.2557 13.3755 11.3219 13.3838 11.3847 13.392C11.8356 13.4508 12.25 13.1037 12.25 12.6394V12.2175C12.25 11.7533 11.8356 11.4061 11.3847 11.4649C11.3219 11.4731 11.2557 11.4815 11.1871 11.4897C11.0414 11.5073 10.9212 11.387 10.9387 11.2413C10.947 11.1728 10.9553 11.1066 10.9635 11.0437Z" fill="#FFE9E9" stroke="#A5243B" stroke-width="0.5"/>
</svg>
