<svg width="28" height="37" viewBox="0 0 28 37" fill="none" xmlns="http://www.w3.org/2000/svg">
<path d="M10.5861 0.596618C10.4342 0.485319 10.2325 0.46887 10.0646 0.554064C9.89656 0.639258 9.7907 0.811637 9.7907 1C9.7907 4.47626 8.93806 10.6061 4.78602 14.7329C0.710897 18.7833 -0.170373 23.6166 1.50964 27.6875C3.18229 31.7405 7.34869 34.9307 13.1538 35.8325C13.2026 35.8401 13.2522 35.8404 13.301 35.8335C16.4235 35.3888 20.7382 34.2661 23.6036 30.9318C26.4968 27.5651 27.8002 22.0839 25.1969 13.1862C25.1408 12.9946 24.9762 12.8547 24.778 12.8304C24.5799 12.806 24.3863 12.9018 24.2854 13.0741C24.209 13.2047 24.1306 13.3406 24.0498 13.4805C23.5721 14.3082 23.0143 15.2745 22.3305 16.0861C21.6468 16.8974 20.9012 17.4755 20.0684 17.6288C19.7971 15.619 18.9065 12.5837 17.445 9.52323C15.8574 6.19886 13.5648 2.77822 10.5861 0.596618Z" fill="#D24940" stroke="#60050F" stroke-linejoin="round"/>
<path d="M5.13849 15.0876C9.43281 10.8193 10.2907 4.52189 10.2907 1C11.1379 1.62051 11.9302 2.34666 12.6665 3.14615C13.183 8.29692 9.57469 14.4778 6.57008 16.8815C4.42392 18.5985 2.49239 20.7446 2.49239 24.1785C2.49239 30.3697 8.72584 34.308 12.3454 35.1803C12.6357 35.2391 12.9308 35.2919 13.2306 35.3384C12.9595 35.3096 12.6625 35.2568 12.3454 35.1803C1.65811 33.0168 -2.55151 22.7308 5.13849 15.0876Z" fill="#E95D54"/>
<path fill-rule="evenodd" clip-rule="evenodd" d="M1.22542 23.0058C0.853648 28.781 5.48122 34.1345 13.2306 35.3384C19.4133 34.4579 29.8693 30.936 24.717 13.3266C24.6432 13.4527 24.5665 13.5856 24.4869 13.7237C24.4362 13.8115 24.3843 13.9015 24.3312 13.9932C28.2504 29.5948 18.5978 32.8007 12.8159 33.6215C5.90043 32.5505 1.55983 28.0676 1.22542 23.0058ZM19.8196 18.1629C19.7559 18.1671 19.6916 18.1692 19.6267 18.1692C19.3255 14.8245 16.8123 7.39736 12.3093 2.76862C16.3685 7.52063 18.5213 15.2632 18.8032 18.3838C19.1449 18.3838 19.4856 18.3047 19.8196 18.1629Z" fill="#AB3028"/>
<path d="M13.2232 35.3385C1.41933 33.8362 7.42851 18.3839 13.6523 13.2331C12.5793 20.9592 18.5322 20.4928 19.2324 27.6123C19.6616 31.9762 17.9447 34.9092 13.2232 35.3385Z" fill="#FF784E"/>
<path d="M13.2231 35.3385C4.26096 33.5262 8.12403 22.6523 12.1977 19.0277C12.1978 25.3708 17.0862 24.4646 17.0862 29.9016C17.0862 33.5262 15.3692 35.1239 13.2231 35.3385Z" fill="#FFB45C"/>
<path d="M13.2676 35.3385C18.156 34.3846 15.3693 29.1146 13.0085 26.7538C13.2232 30.4023 11.2917 30.1877 11.077 32.5485C10.9345 34.1158 12.2306 35.1795 13.2676 35.3385Z" fill="#F5992D"/>
<path d="M13.2231 35.3385C15.7985 34.9092 14.5108 32.1193 13.223 30.6169C13.0084 32.3339 12.0539 32.5056 11.9411 33.804C11.8662 34.666 12.6784 35.251 13.2231 35.3385Z" fill="#E27F0A"/>
<path d="M12.9498 35.2795C4.34068 33.3026 8.16605 22.6149 12.1977 19.0277C12.1977 20.5107 12.4649 21.5974 12.8744 22.4616C12.0606 23.2485 10.3043 25.8096 9.78924 29.7585C9.30833 33.4455 11.5952 34.9248 12.9498 35.2795C13.0396 35.3001 13.1306 35.3198 13.2231 35.3385C13.1376 35.3242 13.0461 35.3047 12.9498 35.2795Z" fill="#FFC46A"/>
<path d="M24.1685 15.8085C23.5962 16.5954 22.0653 18.298 20.52 18.8131" stroke="#FF766D" stroke-linecap="round" stroke-linejoin="round"/>
<path d="M24.1685 15.8085C23.8761 16.2106 23.3333 16.8518 22.6662 17.4515" stroke="#FFD2CF" stroke-linecap="round" stroke-linejoin="round"/>
<path d="M11.077 3.14618C10.8623 6.58002 9.78927 10.6577 7.85773 13.2331" stroke="#FF766D" stroke-linecap="round" stroke-linejoin="round"/>
<path d="M11.077 3.14618C10.9996 4.38373 10.8108 5.70491 10.5104 7.00925" stroke="#FFD2CF" stroke-linecap="round" stroke-linejoin="round"/>
<path d="M11.5063 21.1738C10.4332 22.4615 9.1455 25.0369 8.93088 27.6123" stroke="#FFDEC0" stroke-linecap="round" stroke-linejoin="round"/>
<circle cx="20.091" cy="22.4615" r="0.429231" fill="#F44F44"/>
<circle cx="19.0179" cy="23.5346" r="0.214615" fill="#F44F44"/>
<circle cx="21.164" cy="21.3884" r="0.214615" fill="#F44F44"/>
<circle cx="21.5933" cy="23.1054" r="0.214615" fill="#F44F44"/>
<circle cx="20.3057" cy="24.393" r="0.214615" fill="#F44F44"/>
<circle cx="19.8764" cy="26.5391" r="0.214615" fill="#F44F44"/>
<circle cx="17.7302" cy="19.6715" r="0.214615" fill="#F44F44"/>
<circle cx="17.301" cy="16.2376" r="0.214615" fill="#F44F44"/>
<circle cx="17.301" cy="17.9545" r="0.214615" fill="#F44F44"/>
<circle cx="16.4426" cy="19.6715" r="0.214615" fill="#F44F44"/>
<circle cx="6.5702" cy="22.2469" r="0.214615" fill="#F44F44"/>
<circle cx="5.71175" cy="20.1007" r="0.214615" fill="#F44F44"/>
<circle cx="8.28721" cy="18.813" r="0.214615" fill="#F44F44"/>
<circle cx="6.5702" cy="18.813" r="0.214615" fill="#F44F44"/>
<circle cx="8.71638" cy="17.0961" r="0.214615" fill="#F44F44"/>
<circle cx="6.14103" cy="23.5346" r="0.214615" fill="#F44F44"/>
<circle cx="4.85329" cy="23.1054" r="0.214615" fill="#F44F44"/>
<circle cx="3.99473" cy="24.8223" r="0.214615" fill="#F44F44"/>
<circle cx="5.28258" cy="25.6807" r="0.214615" fill="#F44F44"/>
<circle cx="5.28258" cy="27.3977" r="0.214615" fill="#F44F44"/>
<circle cx="14.7255" cy="15.8084" r="0.214615" fill="#F44F44"/>
<circle cx="16.0133" cy="16.6669" r="0.214615" fill="#F44F44"/>
<circle cx="15.1547" cy="14.0915" r="0.214615" fill="#F44F44"/>
<circle cx="17.9448" cy="21.6031" r="0.429231" fill="#F44F44"/>
<circle cx="4.63863" cy="21.6031" r="0.429231" fill="#F44F44"/>
<circle cx="15.7987" cy="18.1692" r="0.429231" fill="#F44F44"/>
<circle cx="7.21399" cy="20.3153" r="0.429231" fill="#F44F44"/>
<circle cx="5.49719" cy="24.6076" r="0.429231" fill="#F44F44"/>
<circle cx="19.4472" cy="20.53" r="0.643846" fill="#F44F44"/>
</svg>
