<svg width="292" height="54" viewBox="0 0 292 54" fill="none" xmlns="http://www.w3.org/2000/svg">
<mask id="path-1-outside-1_106_787" maskUnits="userSpaceOnUse" x="0" y="0" width="292" height="54" fill="black">
<rect fill="white" width="292" height="54"/>
<path d="M23.1484 51.5859H1V2.26465H22.5674C27.3298 2.26465 31.0667 3.3584 33.7783 5.5459C36.4899 7.7334 37.8457 10.7412 37.8457 14.5693C37.8457 17.1898 36.9912 19.5026 35.2822 21.5078C33.5732 23.513 31.4541 24.7093 28.9248 25.0967V25.7119C32.1833 25.9626 34.8721 27.193 36.9912 29.4033C39.1331 31.6136 40.2041 34.3024 40.2041 37.4697C40.2041 41.7992 38.6774 45.2399 35.624 47.792C32.5706 50.3213 28.4121 51.5859 23.1484 51.5859ZM11.3223 10.1602V22.7041H19.0811C21.861 22.7041 23.9915 22.1572 25.4727 21.0635C26.9538 19.9697 27.6943 18.4316 27.6943 16.4492C27.6943 14.4668 27.0107 12.9287 25.6436 11.835C24.2992 10.7184 22.3965 10.1602 19.9355 10.1602H11.3223ZM11.3223 43.6904H20.5166C23.4788 43.6904 25.7461 43.0866 27.3184 41.8789C28.8906 40.6484 29.6768 38.8825 29.6768 36.5811C29.6768 34.3252 28.8678 32.6162 27.25 31.4541C25.6549 30.2692 23.3307 29.6768 20.2773 29.6768H11.3223V43.6904ZM71.1025 1C78.3942 1 84.1592 3.32422 88.3975 7.97266C92.6585 12.6211 94.7891 18.9329 94.7891 26.9082C94.7891 34.9062 92.6585 41.2295 88.3975 45.8779C84.1592 50.5264 78.3942 52.8506 71.1025 52.8506C63.7881 52.8506 58.0003 50.5264 53.7393 45.8779C49.4782 41.2295 47.3477 34.9062 47.3477 26.9082C47.3477 18.9329 49.4896 12.6211 53.7734 7.97266C58.0573 3.32422 63.8337 1 71.1025 1ZM80.6729 14.6377C78.3031 11.5843 75.113 10.0576 71.1025 10.0576C67.0921 10.0576 63.8906 11.5843 61.498 14.6377C59.1055 17.6683 57.9092 21.7585 57.9092 26.9082C57.9092 32.0579 59.0941 36.1595 61.4639 39.2129C63.8564 42.2663 67.0693 43.793 71.1025 43.793C75.113 43.793 78.3031 42.2663 80.6729 39.2129C83.0654 36.1595 84.2617 32.0579 84.2617 26.9082C84.2617 21.7585 83.0654 17.6683 80.6729 14.6377ZM126.132 1C133.424 1 139.188 3.32422 143.427 7.97266C147.688 12.6211 149.818 18.9329 149.818 26.9082C149.818 34.9062 147.688 41.2295 143.427 45.8779C139.188 50.5264 133.424 52.8506 126.132 52.8506C118.817 52.8506 113.03 50.5264 108.769 45.8779C104.507 41.2295 102.377 34.9062 102.377 26.9082C102.377 18.9329 104.519 12.6211 108.803 7.97266C113.087 3.32422 118.863 1 126.132 1ZM135.702 14.6377C133.332 11.5843 130.142 10.0576 126.132 10.0576C122.121 10.0576 118.92 11.5843 116.527 14.6377C114.135 17.6683 112.938 21.7585 112.938 26.9082C112.938 32.0579 114.123 36.1595 116.493 39.2129C118.886 42.2663 122.099 43.793 126.132 43.793C130.142 43.793 133.332 42.2663 135.702 39.2129C138.095 36.1595 139.291 32.0579 139.291 26.9082C139.291 21.7585 138.095 17.6683 135.702 14.6377ZM157.372 37.8799H167.353C167.58 39.8851 168.629 41.4801 170.497 42.665C172.366 43.8499 174.758 44.4424 177.675 44.4424C180.364 44.4424 182.562 43.8613 184.271 42.6992C185.98 41.5143 186.835 39.9876 186.835 38.1191C186.835 36.5469 186.174 35.2708 184.853 34.291C183.531 33.3112 181.355 32.5023 178.324 31.8643L171.898 30.4971C162.966 28.6286 158.5 23.9346 158.5 16.415C158.5 11.7666 160.22 8.04102 163.661 5.23828C167.102 2.41276 171.671 1 177.367 1C182.79 1 187.245 2.37858 190.731 5.13574C194.241 7.8929 196.075 11.4704 196.234 15.8682H186.527C186.277 13.9085 185.32 12.3363 183.656 11.1514C181.993 9.96647 179.919 9.37402 177.436 9.37402C174.838 9.37402 172.753 9.93229 171.181 11.0488C169.631 12.1654 168.856 13.6579 168.856 15.5264C168.856 17.0531 169.483 18.2835 170.736 19.2178C172.012 20.152 174.097 20.9268 176.991 21.542L182.938 22.8066C187.883 23.8548 191.483 25.4954 193.739 27.7285C195.995 29.9616 197.123 32.9922 197.123 36.8203C197.123 41.7878 195.334 45.707 191.757 48.5781C188.202 51.4264 183.326 52.8506 177.128 52.8506C171.249 52.8506 166.532 51.5062 162.978 48.8174C159.423 46.1286 157.554 42.4827 157.372 37.8799ZM229.184 51.5859H218.861V11.083H204.062V2.26465H243.983V11.083H229.184V51.5859ZM250.888 37.8799H260.868C261.096 39.8851 262.144 41.4801 264.013 42.665C265.881 43.8499 268.274 44.4424 271.19 44.4424C273.879 44.4424 276.078 43.8613 277.787 42.6992C279.496 41.5143 280.351 39.9876 280.351 38.1191C280.351 36.5469 279.69 35.2708 278.368 34.291C277.047 33.3112 274.87 32.5023 271.84 31.8643L265.414 30.4971C256.482 28.6286 252.016 23.9346 252.016 16.415C252.016 11.7666 253.736 8.04102 257.177 5.23828C260.618 2.41276 265.186 1 270.883 1C276.306 1 280.761 2.37858 284.247 5.13574C287.756 7.8929 289.59 11.4704 289.75 15.8682H280.043C279.792 13.9085 278.835 12.3363 277.172 11.1514C275.508 9.96647 273.435 9.37402 270.951 9.37402C268.354 9.37402 266.269 9.93229 264.696 11.0488C263.147 12.1654 262.372 13.6579 262.372 15.5264C262.372 17.0531 262.999 18.2835 264.252 19.2178C265.528 20.152 267.613 20.9268 270.507 21.542L276.454 22.8066C281.399 23.8548 284.999 25.4954 287.255 27.7285C289.511 29.9616 290.639 32.9922 290.639 36.8203C290.639 41.7878 288.85 45.707 285.272 48.5781C281.718 51.4264 276.841 52.8506 270.644 52.8506C264.765 52.8506 260.048 51.5062 256.493 48.8174C252.938 46.1286 251.07 42.4827 250.888 37.8799Z"/>
</mask>
<path d="M23.1484 51.5859H1V2.26465H22.5674C27.3298 2.26465 31.0667 3.3584 33.7783 5.5459C36.4899 7.7334 37.8457 10.7412 37.8457 14.5693C37.8457 17.1898 36.9912 19.5026 35.2822 21.5078C33.5732 23.513 31.4541 24.7093 28.9248 25.0967V25.7119C32.1833 25.9626 34.8721 27.193 36.9912 29.4033C39.1331 31.6136 40.2041 34.3024 40.2041 37.4697C40.2041 41.7992 38.6774 45.2399 35.624 47.792C32.5706 50.3213 28.4121 51.5859 23.1484 51.5859ZM11.3223 10.1602V22.7041H19.0811C21.861 22.7041 23.9915 22.1572 25.4727 21.0635C26.9538 19.9697 27.6943 18.4316 27.6943 16.4492C27.6943 14.4668 27.0107 12.9287 25.6436 11.835C24.2992 10.7184 22.3965 10.1602 19.9355 10.1602H11.3223ZM11.3223 43.6904H20.5166C23.4788 43.6904 25.7461 43.0866 27.3184 41.8789C28.8906 40.6484 29.6768 38.8825 29.6768 36.5811C29.6768 34.3252 28.8678 32.6162 27.25 31.4541C25.6549 30.2692 23.3307 29.6768 20.2773 29.6768H11.3223V43.6904ZM71.1025 1C78.3942 1 84.1592 3.32422 88.3975 7.97266C92.6585 12.6211 94.7891 18.9329 94.7891 26.9082C94.7891 34.9062 92.6585 41.2295 88.3975 45.8779C84.1592 50.5264 78.3942 52.8506 71.1025 52.8506C63.7881 52.8506 58.0003 50.5264 53.7393 45.8779C49.4782 41.2295 47.3477 34.9062 47.3477 26.9082C47.3477 18.9329 49.4896 12.6211 53.7734 7.97266C58.0573 3.32422 63.8337 1 71.1025 1ZM80.6729 14.6377C78.3031 11.5843 75.113 10.0576 71.1025 10.0576C67.0921 10.0576 63.8906 11.5843 61.498 14.6377C59.1055 17.6683 57.9092 21.7585 57.9092 26.9082C57.9092 32.0579 59.0941 36.1595 61.4639 39.2129C63.8564 42.2663 67.0693 43.793 71.1025 43.793C75.113 43.793 78.3031 42.2663 80.6729 39.2129C83.0654 36.1595 84.2617 32.0579 84.2617 26.9082C84.2617 21.7585 83.0654 17.6683 80.6729 14.6377ZM126.132 1C133.424 1 139.188 3.32422 143.427 7.97266C147.688 12.6211 149.818 18.9329 149.818 26.9082C149.818 34.9062 147.688 41.2295 143.427 45.8779C139.188 50.5264 133.424 52.8506 126.132 52.8506C118.817 52.8506 113.03 50.5264 108.769 45.8779C104.507 41.2295 102.377 34.9062 102.377 26.9082C102.377 18.9329 104.519 12.6211 108.803 7.97266C113.087 3.32422 118.863 1 126.132 1ZM135.702 14.6377C133.332 11.5843 130.142 10.0576 126.132 10.0576C122.121 10.0576 118.92 11.5843 116.527 14.6377C114.135 17.6683 112.938 21.7585 112.938 26.9082C112.938 32.0579 114.123 36.1595 116.493 39.2129C118.886 42.2663 122.099 43.793 126.132 43.793C130.142 43.793 133.332 42.2663 135.702 39.2129C138.095 36.1595 139.291 32.0579 139.291 26.9082C139.291 21.7585 138.095 17.6683 135.702 14.6377ZM157.372 37.8799H167.353C167.58 39.8851 168.629 41.4801 170.497 42.665C172.366 43.8499 174.758 44.4424 177.675 44.4424C180.364 44.4424 182.562 43.8613 184.271 42.6992C185.98 41.5143 186.835 39.9876 186.835 38.1191C186.835 36.5469 186.174 35.2708 184.853 34.291C183.531 33.3112 181.355 32.5023 178.324 31.8643L171.898 30.4971C162.966 28.6286 158.5 23.9346 158.5 16.415C158.5 11.7666 160.22 8.04102 163.661 5.23828C167.102 2.41276 171.671 1 177.367 1C182.79 1 187.245 2.37858 190.731 5.13574C194.241 7.8929 196.075 11.4704 196.234 15.8682H186.527C186.277 13.9085 185.32 12.3363 183.656 11.1514C181.993 9.96647 179.919 9.37402 177.436 9.37402C174.838 9.37402 172.753 9.93229 171.181 11.0488C169.631 12.1654 168.856 13.6579 168.856 15.5264C168.856 17.0531 169.483 18.2835 170.736 19.2178C172.012 20.152 174.097 20.9268 176.991 21.542L182.938 22.8066C187.883 23.8548 191.483 25.4954 193.739 27.7285C195.995 29.9616 197.123 32.9922 197.123 36.8203C197.123 41.7878 195.334 45.707 191.757 48.5781C188.202 51.4264 183.326 52.8506 177.128 52.8506C171.249 52.8506 166.532 51.5062 162.978 48.8174C159.423 46.1286 157.554 42.4827 157.372 37.8799ZM229.184 51.5859H218.861V11.083H204.062V2.26465H243.983V11.083H229.184V51.5859ZM250.888 37.8799H260.868C261.096 39.8851 262.144 41.4801 264.013 42.665C265.881 43.8499 268.274 44.4424 271.19 44.4424C273.879 44.4424 276.078 43.8613 277.787 42.6992C279.496 41.5143 280.351 39.9876 280.351 38.1191C280.351 36.5469 279.69 35.2708 278.368 34.291C277.047 33.3112 274.87 32.5023 271.84 31.8643L265.414 30.4971C256.482 28.6286 252.016 23.9346 252.016 16.415C252.016 11.7666 253.736 8.04102 257.177 5.23828C260.618 2.41276 265.186 1 270.883 1C276.306 1 280.761 2.37858 284.247 5.13574C287.756 7.8929 289.59 11.4704 289.75 15.8682H280.043C279.792 13.9085 278.835 12.3363 277.172 11.1514C275.508 9.96647 273.435 9.37402 270.951 9.37402C268.354 9.37402 266.269 9.93229 264.696 11.0488C263.147 12.1654 262.372 13.6579 262.372 15.5264C262.372 17.0531 262.999 18.2835 264.252 19.2178C265.528 20.152 267.613 20.9268 270.507 21.542L276.454 22.8066C281.399 23.8548 284.999 25.4954 287.255 27.7285C289.511 29.9616 290.639 32.9922 290.639 36.8203C290.639 41.7878 288.85 45.707 285.272 48.5781C281.718 51.4264 276.841 52.8506 270.644 52.8506C264.765 52.8506 260.048 51.5062 256.493 48.8174C252.938 46.1286 251.07 42.4827 250.888 37.8799Z" stroke="#4F3120" stroke-width="2" mask="url(#path-1-outside-1_106_787)"/>
</svg>
