<svg width="127" height="134" viewBox="0 0 127 134" fill="none" xmlns="http://www.w3.org/2000/svg">
<g clip-path="url(#clip0_170_72)">
<path d="M2.67865 84.9098L24.1473 38.364C36.477 13.1534 79.178 -1.91817 102.419 11.4309C118.649 24.6626 121.918 36.6807 125.503 51.2825C128.97 65.4929 126.37 80.173 118.097 92.2694L88.2776 134L65.6666 118.733L94.5015 76.4149C98.165 71.0126 99.3862 64.2402 97.8499 57.8984C96.1166 50.7736 91.3108 45.1365 84.9687 41.4958C78.6659 37.8551 71.2602 36.3675 64.2484 38.5989C58.3396 40.5171 52.5884 44.8624 49.7916 50.7345L27.7714 96.967L2.71804 84.8706L2.67865 84.9098Z" fill="#686868"/>
<path fill-rule="evenodd" clip-rule="evenodd" d="M0 75.5145L2.67866 84.9098L27.732 96.9671L25.0533 87.6109L0 75.5145Z" fill="url(#paint0_linear_170_72)"/>
<path fill-rule="evenodd" clip-rule="evenodd" d="M62.9879 109.337L65.6666 118.733L88.2776 134L85.599 124.644L62.9879 109.337Z" fill="url(#paint1_linear_170_72)"/>
<path fill-rule="evenodd" clip-rule="evenodd" d="M9.21774 55.5496L0 75.5145L5.71185 78.2939L25.0533 87.6109L34.5074 67.7634L14.9296 58.329L9.21774 55.5496ZM81.581 95.362L75.357 91.1733L62.9485 109.377L69.1725 113.565L85.5989 124.644L98.4014 106.715L81.581 95.362Z" fill="url(#paint2_radial_170_72)"/>
<path fill-rule="evenodd" clip-rule="evenodd" d="M37.1861 77.1195L34.5468 67.7242L25.0533 87.6109L27.732 96.967L37.1861 77.1195Z" fill="url(#paint3_linear_170_72)"/>
<path fill-rule="evenodd" clip-rule="evenodd" d="M101.08 116.11L98.4014 106.715L85.5989 124.644L88.2776 134L101.08 116.11Z" fill="url(#paint4_linear_170_72)"/>
<path fill-rule="evenodd" clip-rule="evenodd" d="M34.5468 67.7242L47.1129 41.3783C49.9097 35.5063 55.6609 31.1609 61.5698 29.2427C68.6209 26.9722 75.9872 28.4989 82.29 32.1396L92.9258 13.858L96.5499 7.59448C83.5111 0.117411 67.9907 -2.11397 53.4944 2.11391C39.3526 6.22433 27.8895 15.8153 21.4686 28.9687L9.21771 55.5103L14.9296 58.2898L34.5074 67.7242H34.5468Z" fill="url(#paint5_radial_170_72)"/>
<path fill-rule="evenodd" clip-rule="evenodd" d="M91.8229 67.0196L75.3964 91.1341L81.6203 95.3228L98.4407 106.675L115.458 82.835C123.14 71.5606 125.936 58.0158 123.455 44.7058C123.258 43.7272 123.061 42.7876 122.824 41.8481C119.24 27.2463 109.589 14.9933 96.5499 7.51624L92.9258 13.7797L82.29 32.0614C88.5927 35.702 93.3985 41.3001 95.1712 48.4639C95.4863 49.7558 95.6833 51.0868 95.7621 52.3786C96.1166 57.5069 94.7379 62.6743 91.8229 66.9805V67.0196Z" fill="url(#paint6_linear_170_72)"/>
<path fill-rule="evenodd" clip-rule="evenodd" d="M82.29 32.1396C75.9873 28.499 68.5815 27.0114 61.5698 29.2428C55.661 31.161 49.9097 35.5063 47.1129 41.3783L34.5468 67.7242L37.2255 77.1195L49.7915 50.7736C52.5884 44.9016 58.3396 40.5562 64.2484 38.638C68.9755 37.1113 73.8601 37.307 78.469 38.6772L82.29 32.1005V32.1396Z" fill="url(#paint7_linear_170_72)"/>
<path fill-rule="evenodd" clip-rule="evenodd" d="M82.29 32.1396L78.469 38.7163C80.7143 39.3818 82.8809 40.3605 84.9687 41.5349C89.5776 44.1969 93.3592 47.8767 95.7621 52.4569C95.6833 51.1259 95.4864 49.8341 95.1712 48.5422C93.438 41.4175 88.6321 35.7803 82.29 32.1396Z" fill="#780808"/>
<path fill-rule="evenodd" clip-rule="evenodd" d="M115.419 82.8741L98.4014 106.715L101.08 116.11L118.097 92.2693C126.33 80.1729 128.97 65.4928 125.503 51.2825C124.203 45.9194 122.903 40.9085 121.052 36.0543C121.761 37.9334 122.352 39.8907 122.864 41.8872C126.33 56.0976 123.691 70.7777 115.458 82.8741H115.419Z" fill="#780808"/>
<path style="mix-blend-mode:screen" fill-rule="evenodd" clip-rule="evenodd" d="M15.5993 83.0307C14.0236 75.5928 14.8508 67.92 17.2143 59.3859L14.9296 58.2898L9.21774 55.5104L0 75.5145L5.71185 78.2939L15.5599 83.0307H15.5993Z" fill="url(#paint8_radial_170_72)"/>
<path style="mix-blend-mode:screen" fill-rule="evenodd" clip-rule="evenodd" d="M14.969 58.2898L17.2537 59.3859C17.7658 57.5852 18.3173 55.7453 18.9476 53.8662C21.0353 47.6419 23.0837 41.6524 25.3685 36.0935C28.0471 29.5951 31.1197 23.7231 34.9407 18.7514C49.2794 0.2349 71.2208 -1.13524 90.4441 7.20306C92.0986 7.94685 93.7531 8.72979 95.3681 9.59102L95.959 8.5732L96.5499 7.55538C83.5111 0.11746 67.9907 -2.11392 53.4944 2.11395C39.3526 6.22438 27.8895 15.8154 21.4686 28.9688L9.21771 55.5104L14.9296 58.2898H14.969Z" fill="url(#paint9_radial_170_72)"/>
<path style="mix-blend-mode:screen" fill-rule="evenodd" clip-rule="evenodd" d="M95.3682 9.59102C103.168 13.7406 110.337 19.4952 116.088 26.2676C116.207 26.3851 116.325 26.5417 116.443 26.6591C112.819 20.7871 108.052 15.5805 102.419 11.3918C100.568 9.98249 98.5983 8.69064 96.5499 7.51624L95.9591 8.53406L95.3682 9.55188V9.59102Z" fill="url(#paint10_radial_170_72)"/>
<path fill-rule="evenodd" clip-rule="evenodd" d="M123.258 43.8054C124.361 63.0266 109.589 84.8706 92.6107 102.8L98.4407 106.715L115.458 82.8741C123.337 71.3257 126.094 57.4286 123.297 43.8054H123.258Z" fill="#990000"/>
<path style="mix-blend-mode:multiply" opacity="0.65" fill-rule="evenodd" clip-rule="evenodd" d="M98.4013 106.715L92.5713 102.8C90.129 105.384 87.6473 107.85 85.1262 110.238C81.7385 113.487 78.4296 116.149 75.4752 117.832L85.5595 124.644L98.3619 106.715H98.4013Z" fill="url(#paint11_radial_170_72)"/>
<path style="mix-blend-mode:multiply" fill-rule="evenodd" clip-rule="evenodd" d="M79.4144 37.0722C67.8725 32.1397 53.3763 35.154 45.5766 52.6527L35.965 72.5785L37.2649 77.1195L49.831 50.7736C52.6278 44.9016 58.379 40.5563 64.2879 38.6381C69.0149 37.1113 73.8995 37.3071 78.5084 38.6772L79.4538 37.0722H79.4144Z" fill="url(#paint12_linear_170_72)"/>
<path fill-rule="evenodd" clip-rule="evenodd" d="M79.4144 37.0722L78.469 38.6773C80.7143 39.3428 82.8809 40.3214 84.9687 41.4958C87.0959 42.7094 89.0261 44.1578 90.7199 45.7628C87.7261 41.9656 83.7869 38.9121 79.4144 37.0331V37.0722Z" fill="#4E0505"/>
<path style="mix-blend-mode:multiply" fill-rule="evenodd" clip-rule="evenodd" d="M37.1861 77.1195L35.9256 72.5785L26.3927 92.2694L27.732 96.967L37.1861 77.1195Z" fill="url(#paint13_radial_170_72)"/>
</g>
<defs>
<linearGradient id="paint0_linear_170_72" x1="0" y1="86.2408" x2="27.732" y2="86.2408" gradientUnits="userSpaceOnUse">
<stop stop-color="#2F5078"/>
<stop offset="1" stop-color="#456A97"/>
</linearGradient>
<linearGradient id="paint1_linear_170_72" x1="62.9879" y1="121.669" x2="88.2776" y2="121.669" gradientUnits="userSpaceOnUse">
<stop stop-color="#2F5078"/>
<stop offset="1" stop-color="#456A97"/>
</linearGradient>
<radialGradient id="paint2_radial_170_72" cx="0" cy="0" r="1" gradientUnits="userSpaceOnUse" gradientTransform="translate(2.83623 90.0772) scale(142.914 142.025)">
<stop stop-color="#DCFBFF"/>
<stop offset="1" stop-color="#6084AB"/>
</radialGradient>
<linearGradient id="paint3_linear_170_72" x1="25.0533" y1="82.3652" x2="37.1861" y2="82.3652" gradientUnits="userSpaceOnUse">
<stop stop-color="#5C86B8"/>
<stop offset="1" stop-color="#2F5078"/>
</linearGradient>
<linearGradient id="paint4_linear_170_72" x1="85.5989" y1="120.377" x2="101.08" y2="120.377" gradientUnits="userSpaceOnUse">
<stop stop-color="#5C86B8"/>
<stop offset="1" stop-color="#2F5078"/>
</linearGradient>
<radialGradient id="paint5_radial_170_72" cx="0" cy="0" r="1" gradientUnits="userSpaceOnUse" gradientTransform="translate(62.6333 58.4464) scale(74.6873 74.2226)">
<stop stop-color="#0055D4"/>
<stop offset="1" stop-color="#0FB1F7"/>
</radialGradient>
<linearGradient id="paint6_linear_170_72" x1="75.357" y1="57.1546" x2="124.321" y2="57.1546" gradientUnits="userSpaceOnUse">
<stop stop-color="#A80000"/>
<stop offset="1" stop-color="#D43500"/>
</linearGradient>
<linearGradient id="paint7_linear_170_72" x1="32.0257" y1="70.8168" x2="75.8606" y2="25.2504" gradientUnits="userSpaceOnUse">
<stop stop-color="#003E99"/>
<stop offset="1" stop-color="#0057C2"/>
</linearGradient>
<radialGradient id="paint8_radial_170_72" cx="0" cy="0" r="1" gradientUnits="userSpaceOnUse" gradientTransform="translate(-22.0596 77.4718) scale(45.1039 44.8232)">
<stop stop-color="#F0FFFF"/>
<stop offset="0.11" stop-color="#EBFAFA"/>
<stop offset="0.24" stop-color="#DEECEE"/>
<stop offset="0.37" stop-color="#C8D6DA"/>
<stop offset="0.51" stop-color="#AAB6BE"/>
<stop offset="0.65" stop-color="#838E99"/>
<stop offset="0.79" stop-color="#535C6D"/>
<stop offset="0.93" stop-color="#1C2239"/>
<stop offset="1" stop-color="#00051F"/>
</radialGradient>
<radialGradient id="paint9_radial_170_72" cx="0" cy="0" r="1" gradientUnits="userSpaceOnUse" gradientTransform="translate(34.3105 -55.3929) scale(145.435 144.531)">
<stop stop-color="#00FFFF"/>
<stop offset="1"/>
</radialGradient>
<radialGradient id="paint10_radial_170_72" cx="0" cy="0" r="1" gradientUnits="userSpaceOnUse" gradientTransform="translate(99.1498 -5.04994) scale(59.3638 58.9945)">
<stop stop-color="#D44660"/>
<stop offset="1"/>
</radialGradient>
<radialGradient id="paint11_radial_170_72" cx="0" cy="0" r="1" gradientUnits="userSpaceOnUse" gradientTransform="translate(55.8973 86.3582) scale(54.4004 54.0619)">
<stop offset="0.51" stop-color="#F0FFFF"/>
<stop offset="0.77" stop-color="#B4D0EF"/>
<stop offset="1" stop-color="#7BA4E1"/>
</radialGradient>
<linearGradient id="paint12_linear_170_72" x1="77.2478" y1="24.232" x2="32.8609" y2="85.0958" gradientUnits="userSpaceOnUse">
<stop stop-color="#616DBE"/>
<stop offset="0.6" stop-color="#C2C7E6"/>
<stop offset="1" stop-color="white"/>
</linearGradient>
<radialGradient id="paint13_radial_170_72" cx="0" cy="0" r="1" gradientUnits="userSpaceOnUse" gradientTransform="translate(-5.94817 60.2081) scale(56.2912 55.941)">
<stop offset="0.51" stop-color="#F0FFFF"/>
<stop offset="0.77" stop-color="#B4D0EF"/>
<stop offset="1" stop-color="#7BA4E1"/>
</radialGradient>
<clipPath id="clip0_170_72">
<rect width="127" height="134" fill="white"/>
</clipPath>
</defs>
</svg>
