<svg width="35" height="36" viewBox="0 0 35 36" fill="none" xmlns="http://www.w3.org/2000/svg">
<path d="M31.7188 13.875L17.5 31.875L3.28125 13.875L10.9375 4.875H24.0625L31.7188 13.875Z" fill="#38ACFF"/>
<path fill-rule="evenodd" clip-rule="evenodd" d="M17.5 32.625C17.2804 32.625 17.0725 32.5232 16.9341 32.3479L2.71531 14.3479C2.49132 14.0644 2.49857 13.6561 2.73248 13.3811L10.3887 4.38112C10.5272 4.21836 10.7272 4.125 10.9375 4.125H24.0625C24.2727 4.125 24.4728 4.21836 24.6112 4.38112L32.2675 13.3811C32.5014 13.6561 32.5086 14.0644 32.2846 14.3479L18.0659 32.3479C17.9274 32.5232 17.7196 32.625 17.5 32.625ZM10.9375 4.875H24.0625L31.7187 13.875L17.5 31.875L3.28123 13.875L10.9375 4.875Z" fill="#042360"/>
<path d="M24.0625 4.875L31.7188 13.875H3.28125L10.9375 4.875H24.0625Z" fill="#63BDFF"/>
<path d="M31.7188 13.875L17.5 31.875V4.875H24.0625L31.7188 13.875Z" fill="#2D88F3"/>
<path d="M31.7188 13.875H17.5V4.875H24.0625L31.7188 13.875Z" fill="#53A1FE"/>
<path d="M3.28125 13.875L17.5 31.875L10.2083 13.875L17.5 4.875H10.9375L3.28125 13.875Z" fill="#46CAF3"/>
<path d="M11.3021 4.875L3.28125 13.875H10.2083L17.5 4.875H11.3021Z" fill="#68DBFF"/>
<path d="M3.28125 13.875L17.5 31.875L5.83333 13.875L13.4896 4.875H10.9375L3.28125 13.875Z" fill="#C1E9FF"/>
<path d="M10.9375 4.875L3.28123 13.875H5.83331L13.4896 4.875H10.9375Z" fill="#D8F1FF"/>
<path d="M31.7188 13.875L17.5 31.875L24.7917 13.875L17.5 4.875H24.0625L31.7188 13.875Z" fill="#4E5CDE"/>
<path d="M24.0625 4.875L31.7188 13.875H24.7917L17.5 4.875H24.0625Z" fill="#6A78F5"/>
<path d="M31.7188 13.875L17.5 31.875L29.1667 13.875L21.5104 4.875H24.0625L31.7188 13.875Z" fill="#2D88F3"/>
<path d="M24.0625 4.875L31.7187 13.875H29.1666L21.5104 4.875H24.0625Z" fill="#52A1FE"/>
<path fill-rule="evenodd" clip-rule="evenodd" d="M9.71795 7.21662C9.87011 7.35226 9.88656 7.5891 9.75468 7.7456L5.0151 13.3706C4.88323 13.5271 4.65297 13.544 4.50081 13.4084C4.34865 13.2727 4.3322 13.0359 4.46408 12.8794L9.20366 7.25441C9.33553 7.0979 9.56579 7.08098 9.71795 7.21662Z" fill="white"/>
<path fill-rule="evenodd" clip-rule="evenodd" d="M16.645 7.21662C16.7972 7.35226 16.8136 7.5891 16.6817 7.7456L11.9422 13.3706C11.8103 13.5271 11.58 13.544 11.4279 13.4084C11.2757 13.2727 11.2593 13.0359 11.3911 12.8794L16.1307 7.25441C16.2626 7.0979 16.4929 7.08098 16.645 7.21662Z" fill="#8FD0FF"/>
<path d="M20.7812 18.75C20.7812 18.9571 20.618 19.125 20.4166 19.125C20.2153 19.125 20.0521 18.9571 20.0521 18.75C20.0521 18.5429 20.2153 18.375 20.4166 18.375C20.618 18.375 20.7812 18.5429 20.7812 18.75Z" fill="#2478DC"/>
<path d="M21.875 20.25C21.875 20.4571 21.7118 20.625 21.5104 20.625C21.309 20.625 21.1458 20.4571 21.1458 20.25C21.1458 20.0429 21.309 19.875 21.5104 19.875C21.7118 19.875 21.875 20.0429 21.875 20.25Z" fill="#2478DC"/>
<path d="M20.4167 22.125C20.4167 22.3321 20.2534 22.5 20.0521 22.5C19.8507 22.5 19.6875 22.3321 19.6875 22.125C19.6875 21.9179 19.8507 21.75 20.0521 21.75C20.2534 21.75 20.4167 21.9179 20.4167 22.125Z" fill="#2478DC"/>
<path d="M19.3229 22.875C19.3229 23.0821 19.1597 23.25 18.9583 23.25C18.757 23.25 18.5938 23.0821 18.5938 22.875C18.5938 22.6679 18.757 22.5 18.9583 22.5C19.1597 22.5 19.3229 22.6679 19.3229 22.875Z" fill="#2478DC"/>
<path d="M19.3229 25.125C19.3229 25.3321 19.1597 25.5 18.9583 25.5C18.757 25.5 18.5938 25.3321 18.5938 25.125C18.5938 24.9179 18.757 24.75 18.9583 24.75C19.1597 24.75 19.3229 24.9179 19.3229 25.125Z" fill="#2478DC"/>
<path d="M19.6875 17.625C19.6875 17.8321 19.5243 18 19.3229 18C19.1215 18 18.9583 17.8321 18.9583 17.625C18.9583 17.4179 19.1215 17.25 19.3229 17.25C19.5243 17.25 19.6875 17.4179 19.6875 17.625Z" fill="#2478DC"/>
<path d="M22.6042 16.875C22.6042 17.0821 22.4409 17.25 22.2396 17.25C22.0382 17.25 21.875 17.0821 21.875 16.875C21.875 16.6679 22.0382 16.5 22.2396 16.5C22.4409 16.5 22.6042 16.6679 22.6042 16.875Z" fill="#2478DC"/>
<path d="M21.1458 16.6875C21.1458 16.9982 20.901 17.25 20.5989 17.25C20.2969 17.25 20.0521 16.9982 20.0521 16.6875C20.0521 16.3768 20.2969 16.125 20.5989 16.125C20.901 16.125 21.1458 16.3768 21.1458 16.6875Z" fill="#2478DC"/>
<path d="M20.4167 20.4375C20.4167 20.7482 20.1718 21 19.8698 21C19.5678 21 19.3229 20.7482 19.3229 20.4375C19.3229 20.1268 19.5678 19.875 19.8698 19.875C20.1718 19.875 20.4167 20.1268 20.4167 20.4375Z" fill="#2478DC"/>
</svg>
