<svg width="276" height="52" viewBox="0 0 276 52" fill="none" xmlns="http://www.w3.org/2000/svg">
<path d="M34.4489 42.1816V41.6816H33.9489H12.0953V30.6846H32.6842H33.1842V30.1846V22.0156V21.5156H32.6842H12.0953V10.9971H33.9489H34.4489V10.4971V1.67871V1.17871H33.9489H1.27307H0.773071V1.67871V51V51.5H1.27307H33.9489H34.4489V51V42.1816ZM105.426 51.151L105.536 51.5H105.903H117.079H117.782L117.552 50.836L100.428 1.51472L100.311 1.17871H99.9553H87.8215H87.4658L87.3492 1.51472L70.2251 50.836L69.9946 51.5H70.6975H81.0539H81.418L81.5298 51.1535L85.2119 39.7422H101.811L105.426 51.151ZM184.845 31.7666C187.5 30.5992 189.599 28.7913 191.131 26.3487C192.78 23.7344 193.6 20.7814 193.6 17.5039C193.6 12.4889 191.997 8.48238 188.753 5.54629C185.516 2.61579 181.111 1.17871 175.6 1.17871H154.888H154.388V1.67871V51V51.5H154.888H165.21H165.71V51V33.624H173.347L182.402 51.2287L182.541 51.5H182.847H194.536H195.369L194.977 50.7647L184.845 31.7666ZM242.769 51.5H243.269V51V20.8219L265.745 51.2968L265.895 51.5H266.148H274.693H275.193V51V1.67871V1.17871H274.693H264.815H264.315V1.67871V31.7207L241.907 1.38165L241.757 1.17871H241.504H232.891H232.391V1.67871V51V51.5H232.891H242.769ZM99.3069 30.7783H87.7544L93.5628 12.6152L99.3069 30.7783ZM174.267 24.6943H165.71V10.5186H174.165C176.626 10.5186 178.522 11.1756 179.913 12.4393C181.296 13.6967 182.005 15.4105 182.005 17.6406C182.005 19.9002 181.314 21.6127 179.979 22.8441C178.662 24.0558 176.782 24.6943 174.267 24.6943Z" stroke="#4F3120"/>
</svg>
