<svg width="195" height="52" viewBox="0 0 195 52" fill="none" xmlns="http://www.w3.org/2000/svg">
<path fill-rule="evenodd" clip-rule="evenodd" d="M162.934 52H151.056V0.678711H161.174L182.98 30.2021V0.678711H194.858V52H184.808L162.934 22.3422V52ZM185.313 51H193.858V1.67871H183.98V32.4062H183.365L160.67 1.67871H152.056V51H161.934V20.1357H162.55L185.313 51Z" fill="#4F3120"/>
<path fill-rule="evenodd" clip-rule="evenodd" d="M102.012 51L92.8174 33.124H84.375V51H74.0527V1.67871H94.7656C100.189 1.67871 104.461 3.09147 107.583 5.91699C110.705 8.74251 112.266 12.6048 112.266 17.5039C112.266 20.694 111.468 23.5537 109.873 26.083C108.477 28.3086 106.596 29.9863 104.23 31.116C103.931 31.2586 103.625 31.3924 103.311 31.5176L113.701 51H102.012ZM104.701 31.9991L115.368 52H101.402L92.2072 34.124H85.375V52H73.0527V0.678711H94.7656C100.363 0.678711 104.9 2.1401 108.254 5.17558C111.62 8.22225 113.266 12.373 113.266 17.5039C113.266 20.8691 112.422 23.9157 110.72 26.6152C109.229 28.9918 107.216 30.7896 104.701 31.9991ZM84.375 25.1943V10.0186H93.3301C95.8822 10.0186 97.9102 10.7021 99.4141 12.0693C100.918 13.4365 101.67 15.2936 101.67 17.6406C101.67 20.0104 100.941 21.8675 99.4824 23.2119C98.0469 24.5335 96.0303 25.1943 93.4326 25.1943H84.375ZM98.8046 22.4767C100.018 21.3582 100.67 19.7902 100.67 17.6406C100.67 15.5274 100.004 13.9569 98.7414 12.8093C97.4652 11.6491 95.6995 11.0186 93.3301 11.0186H85.375V24.1943H93.4326C95.8639 24.1943 97.6079 23.5782 98.8046 22.4767Z" fill="#4F3120"/>
<path fill-rule="evenodd" clip-rule="evenodd" d="M34.7837 41.1816V52H0.10791V0.678711H34.7837V11.4971H12.4302V21.0156H33.519V31.1846H12.4302V41.1816H34.7837ZM11.4302 30.1846H32.519V22.0156H11.4302V10.4971H33.7837V1.67871H1.10791V51H33.7837V42.1816H11.4302V30.1846Z" fill="#4F3120"/>
</svg>
