<svg width="121" height="53" viewBox="0 0 121 53" fill="none" xmlns="http://www.w3.org/2000/svg">
<path d="M37.4309 15.2513C52.3617 14.1757 114.743 6.91253 117.499 10.1184C117.585 10.2185 119.465 15.4772 119.545 15.6255C122.03 20.2367 120.889 45.1325 119.394 46.3763C117.851 47.661 38.3489 49.162 34.1346 44.1599C29.9198 39.1577 37.4309 15.2513 37.4309 15.2513Z" fill="#824112"/>
<path d="M34.0139 9.88986C48.7101 8.82554 111.88 6.71788 114.593 9.88986C117.305 13.0618 116.979 41.6537 115.461 42.9248C113.942 44.1952 34.9858 44.7505 30.8378 39.8013C26.6892 34.8514 34.0139 9.88986 34.0139 9.88986Z" fill="#EB8951"/>
<path d="M108.748 37.4854C106.56 42.0933 39.9683 38.8755 39.9683 38.8755V12.889C39.9683 12.889 106.323 10.3105 108.211 14.1683C110.098 18.0262 110.936 32.8776 108.748 37.4854Z" fill="#824112"/>
<path d="M47.7661 26.5566C48.2661 31.4112 49.4334 35.246 43.2648 39.9137C37.0969 44.5814 27.0942 52.5831 21.0928 52.5831C15.0913 52.5831 5.61578 41.1423 2.18471 32.7764C-1.24563 24.4097 47.7661 26.5566 47.7661 26.5566Z" fill="#824112"/>
<path d="M30.4285 4.40487C25.6426 5.08889 2.58873 20.2418 1.42144 28.4107C0.254143 36.5795 16.4247 48.0824 20.5931 48.7489C24.7607 49.4161 46.9327 30.8913 47.7664 26.5564C48.5994 22.2223 38.5974 3.23757 30.4285 4.40487Z" fill="#EB8951"/>
<path d="M10.7536 35.4466C14.703 39.2324 31.689 40.0347 39.0016 27.0755C46.3141 14.1155 27.3469 11.4875 18.321 20.7426C9.2943 29.9978 8.21388 33.012 10.7536 35.4466Z" fill="#824112"/>
<path d="M25.5669 2.70749L14.5081 20.0196C13.8382 21.0688 14.1881 22.4672 15.2743 23.0747L23.243 27.5405L16.6147 42.3831C16.3254 43.0293 17.1384 43.601 17.6486 43.1096L33.223 28.1378C34.0881 27.3069 34.0552 25.9119 33.1496 25.1234L27.9152 20.5587L35.615 12.2134C36.4125 11.3468 36.3994 10.01 35.5827 9.16181L29.0483 2.36269C28.4555 1.74716 27.6116 1.55501 26.8634 1.75551C26.3508 1.89285 25.8821 2.21447 25.5669 2.70749Z" fill="#FFE600"/>
</svg>
