<svg width="12" height="17" viewBox="0 0 12 17" fill="none" xmlns="http://www.w3.org/2000/svg">
<path d="M11.0488 9.3825C11.0444 11.8353 10.8882 14.1334 10.5166 15.327C10.1625 16.4731 8.65287 16.8411 5.29699 16.8768C1.93746 16.8411 0.886239 16.4731 0.532911 15.327C0.160604 14.1334 0.00511011 11.8353 0 9.3825C0 8.99048 0.00511046 8.61671 0.00949055 8.26046V8.25389C0.0642417 5.12505 0.348947 1.97722 0.752646 0.712837C1.05633 -0.237642 9.99756 -0.237642 10.3005 0.712837C10.6998 1.97722 10.9889 5.12505 11.0393 8.25389V8.26046C11.0444 8.61671 11.0488 8.99048 11.0488 9.3825Z" fill="#FF0606"/>
<path d="M11.0488 9.3825C11.0444 11.8353 10.8882 14.1334 10.5166 15.327C10.1625 16.4731 8.65287 16.8411 5.29699 16.8768C1.93746 16.8411 0.886239 16.4731 0.532911 15.327C0.160604 14.1334 0.00511011 11.8353 0 9.3825C0 8.99048 0.00511046 8.61671 0.00949055 8.26046C0.330697 10.8491 1.03297 12.8442 2.1258 12.8442H8.92809C10.0158 12.8442 10.7181 10.8491 11.0393 8.26046C11.0444 8.61671 11.0488 8.99048 11.0488 9.3825Z" fill="#800000"/>
</svg>
