<svg width="121" height="53" viewBox="0 0 121 53" fill="none" xmlns="http://www.w3.org/2000/svg">
<path d="M37.4309 15.2513C52.3617 14.1757 114.743 6.91253 117.499 10.1184C117.585 10.2185 119.465 15.4772 119.545 15.6255C122.03 20.2367 120.889 45.1325 119.394 46.3763C117.851 47.661 38.3489 49.162 34.1346 44.1599C29.9198 39.1577 37.4309 15.2513 37.4309 15.2513Z" fill="#824112"/>
<path d="M34.0141 9.88986C48.7103 8.82554 111.88 6.71788 114.593 9.88986C117.305 13.0618 116.979 41.6537 115.461 42.9248C113.942 44.1952 34.986 44.7505 30.838 39.8013C26.6894 34.8514 34.0141 9.88986 34.0141 9.88986Z" fill="#EB8951"/>
<path d="M108.748 37.4854C106.56 42.0933 39.9683 38.8755 39.9683 38.8755V12.889C39.9683 12.889 106.323 10.3105 108.211 14.1683C110.098 18.0262 110.936 32.8776 108.748 37.4854Z" fill="#824112"/>
<path d="M47.7659 26.5566C48.2659 31.4112 49.4332 35.246 43.2646 39.9137C37.0967 44.5814 27.094 52.5831 21.0926 52.5831C15.0911 52.5831 5.61554 41.1423 2.18447 32.7764C-1.24587 24.4097 47.7659 26.5566 47.7659 26.5566Z" fill="#824112"/>
<path d="M30.4283 4.40487C25.6424 5.08889 2.58849 20.2418 1.4212 28.4107C0.253902 36.5795 16.4245 48.0824 20.5929 48.7489C24.7605 49.4161 46.9325 30.8913 47.7662 26.5564C48.5992 22.2223 38.5972 3.23757 30.4283 4.40487Z" fill="#EB8951"/>
<path d="M10.7538 35.4466C14.7032 39.2324 31.6892 40.0347 39.0018 27.0755C46.3143 14.1155 27.3471 11.4875 18.3212 20.7426C9.29453 29.9978 8.21411 33.012 10.7538 35.4466Z" fill="#824112"/>
<path d="M40.5325 12.6495C40.5252 12.829 40.5099 13.0086 40.4938 13.1926C38.9287 29.8209 21.0185 35.5756 19.9008 35.5573C19.019 35.5435 7.80303 31.6036 2.60898 21.752C1.21246 19.1174 0.255409 16.0615 0.037865 12.5429C-0.987806 -4.12702 19.154 -2.16766 20.3637 6.77138C21.8456 -2.02604 41.613 -3.4043 40.5325 12.6495Z" fill="#FF0606"/>
<mask id="mask0_144_1029" style="mask-type:luminance" maskUnits="userSpaceOnUse" x="0" y="15" width="41" height="21">
<path d="M0.614502 15.5157H40.1464V35.5575H0.614502V15.5157Z" fill="white"/>
</mask>
<g mask="url(#mask0_144_1029)">
<g opacity="0.5">
<path d="M18.6624 24.6689C11.7119 24.4755 4.80162 21.7883 0.614258 16.4482C1.07125 18.3784 1.75673 20.1443 2.60866 21.7518C7.80272 31.6033 19.0194 35.5432 19.9013 35.5571C20.9649 35.5746 37.2296 30.355 40.146 15.5153C36.2412 23.0162 26.7532 24.8945 18.6624 24.6689Z" fill="#FF0606"/>
</g>
</g>
<mask id="mask1_144_1029" style="mask-type:luminance" maskUnits="userSpaceOnUse" x="1" y="1" width="12" height="11">
<path d="M1.74097 1.4117H12.2454V11.9159H1.74097V1.4117Z" fill="white"/>
</mask>
<g mask="url(#mask1_144_1029)">
<g opacity="0.300003">
<path d="M11.7385 1.91866C12.9803 3.16042 11.8619 6.29145 9.24112 8.9122C6.62037 11.533 3.48933 12.6513 2.24758 11.4096C1.00582 10.1678 2.12421 7.0368 4.74496 4.41604C7.36572 1.79529 10.4967 0.676905 11.7385 1.91866Z" fill="white"/>
</g>
</g>
<mask id="mask2_144_1029" style="mask-type:luminance" maskUnits="userSpaceOnUse" x="23" y="1" width="8" height="8">
<path d="M23.6738 1.76652H30.6989V8.79144H23.6738V1.76652Z" fill="white"/>
</mask>
<g mask="url(#mask2_144_1029)">
<g opacity="0.300003">
<path d="M30.3598 2.1053C31.1899 2.93533 30.4423 5.02974 28.6896 6.78251C26.9368 8.53527 24.8431 9.28281 24.0124 8.45278C23.1823 7.62203 23.9299 5.52834 25.6826 3.77558C27.4354 2.02281 29.5298 1.27527 30.3598 2.1053Z" fill="white"/>
</g>
</g>
</svg>
