<svg width="40" height="28" viewBox="0 0 40 28" fill="none" xmlns="http://www.w3.org/2000/svg">
<path d="M34.4769 0.500008H5.18462C2.59154 0.500008 0.5 2.62668 0.5 5.23693V22.1846C0.5 24.7949 2.59154 26.9215 5.18462 26.9215H34.4769C37.07 26.9215 39.1615 24.7949 39.1615 22.1846V5.23693C39.1615 2.62667 37.07 0.500008 34.4769 0.500008Z" fill="#FFBA35" stroke="#501D01" stroke-linecap="round" stroke-linejoin="round"/>
<path fill-rule="evenodd" clip-rule="evenodd" d="M37.2108 2.02917C37.7734 2.5212 38.2052 3.16242 38.4463 3.89211L25.3631 16.4174C22.2695 19.3792 17.3921 19.3792 14.2985 16.4174L1.21518 3.89197C1.45623 3.16236 1.88801 2.52121 2.45058 2.02922C2.72536 1.97175 3.00999 1.94155 3.30158 1.94155H36.36C36.6515 1.94155 36.9361 1.97173 37.2108 2.02917Z" fill="#D29929"/>
<path fill-rule="evenodd" clip-rule="evenodd" d="M1.81012 24.6908C2.57177 25.7404 3.7996 26.4216 5.18459 26.4216H34.4769C36.788 26.4216 38.6615 24.5247 38.6615 22.1847V5.23699C38.6615 3.81577 37.9704 2.55799 36.9099 1.78938C37.4192 2.49123 37.72 3.35777 37.72 4.29545V21.2431C37.72 23.5831 35.8465 25.4801 33.5354 25.4801H4.24309C3.33567 25.4801 2.49571 25.1876 1.81012 24.6908Z" fill="#D39318"/>
<path d="M1.94538 24.8826C1.8469 24.9765 1.79089 25.1064 1.79029 25.2424C1.78968 25.3784 1.84452 25.5088 1.94217 25.6035C2.78269 26.4188 3.92565 26.9215 5.18463 26.9215H34.4769C35.7359 26.9215 36.8789 26.4188 37.7194 25.6035C37.817 25.5088 37.8719 25.3784 37.8713 25.2424C37.8707 25.1064 37.8147 24.9765 37.7162 24.8826L20.1757 8.17031C19.9826 7.98631 19.679 7.98631 19.4859 8.17031L1.94538 24.8826Z" fill="#ECA928" stroke="#501D01" stroke-linecap="round" stroke-linejoin="round"/>
<path fill-rule="evenodd" clip-rule="evenodd" d="M26.6411 15.0212C22.5525 17.8451 17.1087 17.8451 13.0203 15.0211L19.8306 8.53233L26.6411 15.0212Z" fill="#B3801F"/>
<path fill-rule="evenodd" clip-rule="evenodd" d="M36.2248 24.1523C35.6929 24.4002 35.1009 24.5384 34.4769 24.5384H5.18463C4.56071 24.5384 3.96868 24.4002 3.4368 24.1523L2.29028 25.2447C3.0419 25.9737 4.0616 26.4216 5.18463 26.4216H34.4769C35.6 26.4216 36.6197 25.9737 37.3713 25.2447L36.2248 24.1523Z" fill="#D39318"/>
<path d="M1.94538 2.53892C1.8469 2.44508 1.79089 2.31518 1.79029 2.17915C1.78968 2.04312 1.84452 1.91272 1.94217 1.81801C2.78269 1.00278 3.92565 0.499998 5.18463 0.499998H34.4769C35.7359 0.499998 36.8789 1.00278 37.7194 1.81801C37.817 1.91272 37.8719 2.04312 37.8713 2.17915C37.8707 2.31518 37.8147 2.44508 37.7162 2.53892L25.6941 13.9933C22.411 17.1214 17.2505 17.1214 13.9674 13.9933L1.94538 2.53892Z" fill="#FFCD6C" stroke="#501D01" stroke-linecap="round" stroke-linejoin="round"/>
<path d="M5.28641 1.00001H34.3749L22.6639 12.751C21.1007 14.3195 18.5606 14.3195 16.9974 12.751L5.28641 1.00001Z" fill="#FFD789"/>
<path d="M5.70767 4.2954L15.9999 14" stroke="#FFDFA3" stroke-linecap="round" stroke-linejoin="round"/>
<path d="M16.0646 14.0549L13.24 11.3932" stroke="#FFF9ED" stroke-linecap="round" stroke-linejoin="round"/>
<path d="M1.9415 5.23694V21.2431" stroke="#FFCC6A" stroke-linecap="round" stroke-linejoin="round"/>
<path d="M5.70767 2.17693H30.4231" stroke="#FFEAC2" stroke-linecap="round" stroke-linejoin="round"/>
<circle cx="26.8922" cy="21.7139" r="0.470769" fill="#D29520"/>
<circle cx="32.0708" cy="22.1846" r="0.470769" fill="#D29520"/>
<circle cx="28.7754" cy="20.7723" r="0.470769" fill="#D29520"/>
<circle cx="24.5385" cy="23.1262" r="0.470769" fill="#D29520"/>
<circle cx="24.3031" cy="21.4785" r="0.235385" fill="#D29520"/>
<circle cx="25.7154" cy="21.0077" r="0.235385" fill="#D29520"/>
<circle cx="25.7154" cy="21.9492" r="0.235385" fill="#D29520"/>
<circle cx="27.1276" cy="23.3615" r="0.235385" fill="#D29520"/>
<circle cx="22.8907" cy="22.42" r="0.235385" fill="#D29520"/>
<circle cx="29.9523" cy="21.4785" r="0.235385" fill="#D29520"/>
<circle cx="33.2477" cy="22.8908" r="0.235385" fill="#D29520"/>
<circle cx="30.423" cy="20.0662" r="0.235385" fill="#D29520"/>
<circle cx="27.1276" cy="20.0662" r="0.235385" fill="#D29520"/>
<circle cx="20.537" cy="23.3615" r="0.235385" fill="#D29520"/>
<circle cx="21.4785" cy="22.42" r="0.235385" fill="#D29520"/>
<circle cx="23.1261" cy="21.2431" r="0.470769" fill="#D29520"/>
<circle cx="30.6584" cy="23.1262" r="0.470769" fill="#D29520"/>
<circle cx="28.54" cy="22.42" r="0.706154" fill="#D29520"/>
<circle cx="34.4245" cy="16.5354" r="0.470769" fill="#E9A522"/>
<circle cx="36.7784" cy="14.1816" r="0.470769" fill="#E9A522"/>
<circle cx="35.366" cy="13.24" r="0.470769" fill="#E9A522"/>
<circle cx="36.7784" cy="10.4154" r="0.470769" fill="#E9A522"/>
<circle cx="35.8369" cy="16.0646" r="0.470769" fill="#E9A522"/>
<circle cx="35.366" cy="18.8892" r="0.470769" fill="#E9A522"/>
<circle cx="35.6014" cy="20.5369" r="0.706154" fill="#E9A522"/>
<circle cx="33.7184" cy="18.1831" r="0.235385" fill="#E9A522"/>
<circle cx="35.1306" cy="17.7123" r="0.235385" fill="#E9A522"/>
<circle cx="33.2476" cy="16.3" r="0.235385" fill="#E9A522"/>
<circle cx="35.1306" cy="14.8877" r="0.235385" fill="#E9A522"/>
<circle cx="34.1891" cy="13.9462" r="0.235385" fill="#E9A522"/>
<circle cx="35.1306" cy="11.5923" r="0.235385" fill="#E9A522"/>
<circle cx="36.543" cy="12.5339" r="0.235385" fill="#E9A522"/>
<circle cx="32.7769" cy="13.0046" r="0.235385" fill="#E9A522"/>
<circle cx="36.0723" cy="8.29693" r="0.235385" fill="#E9A522"/>
<circle cx="36.543" cy="17.2415" r="0.235385" fill="#E9A522"/>
<circle cx="37.0138" cy="19.1246" r="0.235385" fill="#E9A522"/>
<circle cx="34.1891" cy="19.5954" r="0.235385" fill="#E9A522"/>
<circle cx="32.3061" cy="17.7123" r="0.235385" fill="#E9A522"/>
<circle cx="31.6" cy="8.53232" r="4.26615" fill="#ED5F5F" stroke="#A73E3E"/>
<path d="M30.8939 10.8862C30.6585 9.94465 30.2662 8.06152 29.9523 6.8846C30.6585 6.64921 32.212 6.46091 32.7769 7.59075C33.3419 8.7206 32.2277 9.16002 31.6 9.23849L33.7185 10.4154" stroke="#FF7272" stroke-linecap="round" stroke-linejoin="round"/>
<path d="M31.6 4.76617C29.52 4.76617 27.8339 6.45233 27.8339 8.53232C27.8339 9.42297 28.143 10.2414 28.6599 10.8862L34.1892 5.79739C33.5143 5.1582 32.603 4.76617 31.6 4.76617Z" fill="#FB6A6A"/>
<path fill-rule="evenodd" clip-rule="evenodd" d="M32.9211 6.96446C32.5269 6.51181 31.9789 6.31805 31.4728 6.2582C30.8402 6.18337 30.2042 6.30437 29.8034 6.43798C29.5674 6.51667 29.4333 6.76547 29.4974 7.00589C29.6838 7.70497 29.8897 8.61763 30.0781 9.45295L30.0781 9.45295C30.0861 9.48843 30.094 9.52377 30.102 9.55895L30.9011 8.82349C30.7768 8.27625 30.647 7.71333 30.5259 7.22605C30.7827 7.181 31.0785 7.15966 31.3623 7.19322C31.7276 7.23644 32.0269 7.36181 32.2272 7.6031L32.9211 6.96446Z" fill="#FF9797"/>
</svg>
