<svg width="24" height="24" viewBox="0 0 24 24" fill="none" xmlns="http://www.w3.org/2000/svg">
<g clip-path="url(#clip0_73_39295)">
<path d="M12.1542 2.74851C12.8378 3.58254 12.8545 4.56732 12.7466 5.56532C12.6807 6.17473 12.5361 6.85701 12.3679 7.51126C11.8249 9.62353 9.67475 10.8603 7.57555 10.2739C6.95264 10.1 6.32056 9.89521 5.78278 9.66316C4.84053 9.25658 3.95049 8.75573 3.55704 7.71201C3.30973 7.05594 3.23994 6.39473 3.4081 5.79108C3.57891 5.17786 3.98201 4.67365 4.58473 4.32567C5.24029 3.94718 5.97276 3.99973 6.49382 4.07552C6.62809 4.09505 6.75594 4.11752 6.86845 4.1373C6.98432 4.15767 7.08001 4.17446 7.16431 4.18604C7.20176 4.19118 7.23305 4.1947 7.25904 4.19697C7.27007 4.17333 7.28265 4.14448 7.29692 4.10947C7.32905 4.03067 7.36236 3.93941 7.40265 3.82888C7.44178 3.72156 7.48624 3.5996 7.53646 3.47356C7.73135 2.9844 8.05208 2.3238 8.70764 1.94531C9.31036 1.59733 9.94858 1.50031 10.5651 1.65898C11.1719 1.81517 11.7097 2.20622 12.1542 2.74851ZM7.35073 4.19909C7.35068 4.19905 7.34938 4.19917 7.34698 4.19959C7.34959 4.19935 7.35078 4.19914 7.35073 4.19909ZM7.21733 4.27444C7.21576 4.27631 7.21501 4.27738 7.21502 4.27745C7.21504 4.27752 7.21582 4.27658 7.21733 4.27444Z" fill="#5BDD9E" stroke="#024525" stroke-linecap="round" stroke-linejoin="round"/>
<path d="M7.75 9.25006C8.29167 9.50007 9.6 9.95007 10.5 9.75006C10.75 9.20837 11.3 7.875 11.5 6.875" stroke="#7CF8BC" stroke-linecap="round" stroke-linejoin="round"/>
<path d="M20.2499 15.0998C19.8226 13.9616 18.8668 13.3887 17.8039 12.9247C17.0021 12.5747 16.0128 12.2792 15.0863 12.0449C12.9939 11.5157 10.8897 12.7352 10.3035 14.811C10.0524 15.7004 9.82174 16.6658 9.72035 17.503C9.57758 18.6816 9.56402 19.837 10.3626 20.8083C10.8706 21.4261 11.4818 21.8652 12.167 22.0383C12.8613 22.2137 13.5817 22.1028 14.2666 21.7074C15.0041 21.2816 15.3715 20.539 15.5997 19.9735C15.6582 19.8285 15.7101 19.688 15.7561 19.5634C15.8034 19.4355 15.8431 19.328 15.8816 19.2348C15.9105 19.1649 15.9345 19.1135 15.9543 19.0765C15.9963 19.0778 16.0528 19.0827 16.1278 19.0927C16.2277 19.106 16.3407 19.1253 16.475 19.1483C16.606 19.1707 16.7536 19.196 16.9084 19.2178C17.5123 19.303 18.3391 19.3561 19.0766 18.9303C19.7615 18.5349 20.2177 17.9665 20.413 17.2775C20.6057 16.5975 20.5311 15.8486 20.2499 15.0998ZM15.9891 19.0203C15.9891 19.0204 15.9887 19.0209 15.9877 19.022L15.9891 19.0203ZM15.8904 19.0782C15.889 19.0785 15.8883 19.0786 15.8883 19.0786L15.8904 19.0782Z" fill="#34AD73" stroke="#024525" stroke-linecap="round" stroke-linejoin="round"/>
<path d="M10.75 19.5C10.4095 18.0528 11.1319 15.1742 11.7142 13.3476C11.8932 12.7859 12.3047 12.4869 12.8879 12.5732C13.39 12.6475 14.145 12.779 15.25 13" stroke="#63E3A5" stroke-linecap="round" stroke-linejoin="round"/>
<path d="M20.7825 11.9599C19.8657 12.7083 18.7855 12.736 17.6692 12.6219C16.8867 12.542 15.9931 12.3463 15.1595 12.126C13.0358 11.5647 11.7952 9.40785 12.3717 7.28962C12.59 6.48754 12.8549 5.65154 13.1586 4.95903C13.6198 3.90735 14.1776 2.93627 15.3222 2.50222C16.0494 2.22644 16.7769 2.14733 17.4375 2.32693C18.1083 2.5093 18.661 2.94575 19.042 3.60565C19.4536 4.31855 19.3928 5.11992 19.3051 5.69846C19.2825 5.84727 19.2567 5.98911 19.2338 6.11471C19.2103 6.24369 19.1907 6.35158 19.177 6.44689C19.1684 6.50716 19.1634 6.55435 19.161 6.59094C19.1939 6.60722 19.2373 6.62647 19.2938 6.64912C19.3832 6.68493 19.4864 6.72189 19.6099 6.76604C19.7301 6.80903 19.8658 6.85758 20.006 6.91244C20.5509 7.12573 21.2753 7.47376 21.6869 8.18666C22.0679 8.84655 22.1695 9.54343 21.9921 10.2156C21.8173 10.8775 21.385 11.4681 20.7825 11.9599ZM19.1611 6.66898C19.1612 6.66894 19.1611 6.66791 19.1607 6.66601C19.1609 6.66806 19.1611 6.66901 19.1611 6.66898ZM19.0959 6.55371C19.0944 6.55244 19.0936 6.55182 19.0935 6.55183C19.0935 6.55184 19.0942 6.55248 19.0959 6.55371Z" fill="#1BA965" stroke="#024525" stroke-linecap="round" stroke-linejoin="round"/>
<path d="M12.875 12.5713V12.5713C12.3005 12.4867 11.8947 12.7822 11.7181 13.3354C11.6757 13.4683 11.6325 13.6068 11.589 13.75" stroke="#DAFFED" stroke-linecap="round" stroke-linejoin="round"/>
<path d="M7.83701 18.8603C8.84605 18.4798 9.35292 17.6353 9.75844 16.7171C10.0061 16.1564 10.222 15.4932 10.4035 14.8425C10.9894 12.7417 9.74565 10.5956 7.63452 10.0538C7.00808 9.89301 6.35831 9.75428 5.77655 9.68635C4.75724 9.56734 3.73603 9.55607 2.87343 10.2632C2.33121 10.7078 1.94018 11.2455 1.78397 11.8523C1.62529 12.4688 1.72228 13.107 2.07027 13.7097C2.44876 14.3653 3.10936 14.686 3.59852 14.8809C3.72456 14.9311 3.84652 14.9756 3.95384 15.0147C4.06437 15.055 4.15563 15.0883 4.23443 15.1204C4.26944 15.1347 4.29829 15.1473 4.32193 15.1583C4.31967 15.1843 4.31614 15.2156 4.311 15.2531C4.29942 15.3374 4.28263 15.4331 4.26226 15.5489C4.24248 15.6614 4.22001 15.7893 4.20048 15.9235C4.12469 16.4446 4.07214 17.1771 4.45063 17.8326C4.79861 18.4354 5.30282 18.8385 5.91604 19.0093C6.51971 19.1775 7.18094 19.1077 7.83701 18.8603ZM4.40241 15.2024C4.40234 15.2024 4.40127 15.2016 4.3994 15.2C4.40154 15.2016 4.40247 15.2023 4.40241 15.2024ZM4.32455 15.0704C4.32413 15.068 4.32401 15.0667 4.32405 15.0666C4.3241 15.0666 4.32431 15.0678 4.32455 15.0704Z" fill="#4ECC8F" stroke="#024525" stroke-linecap="round" stroke-linejoin="round"/>
<path d="M5.25 10.5001C6.49997 10.75 8.49998 11.2 9.99997 12C9.74997 13.5 9.12497 16.625 7.74997 17.75" stroke="#7CF8BC" stroke-linecap="round" stroke-linejoin="round"/>
<path d="M14.125 5.00006C13.8538 5.8438 13.3603 7.4677 13.0323 8.79376C12.835 9.59126 13.227 10.384 14.008 10.6389C14.9076 10.9325 16.2383 11.2651 18 11.5" stroke="#36CC84" stroke-linecap="round" stroke-linejoin="round"/>
<circle cx="13" cy="14.4999" r="1" fill="#6BE0A8"/>
<circle cx="14.75" cy="8.99994" r="1" fill="#54CE94"/>
<circle cx="9.625" cy="8.12494" r="0.875" fill="#7CF8BC"/>
<circle cx="8.375" cy="12.8749" r="0.875" fill="#7CF8BC"/>
<circle cx="16.75" cy="17" r="0.25" fill="#21945D"/>
<circle cx="19" cy="16.75" r="0.25" fill="#21945D"/>
<circle cx="18" cy="15.25" r="0.25" fill="#21945D"/>
<circle cx="17" cy="17.75" r="0.25" fill="#21945D"/>
<circle cx="15.75" cy="17.5" r="0.25" fill="#21945D"/>
<circle cx="18.125" cy="17.625" r="0.375" fill="#21945D"/>
<circle cx="18.125" cy="16.375" r="0.375" fill="#21945D"/>
<circle cx="18.875" cy="15.125" r="0.375" fill="#21945D"/>
<ellipse cx="4.08541" cy="11.6618" rx="0.170825" ry="0.170825" transform="rotate(162.191 4.08541 11.6618)" fill="#61EBA9"/>
<ellipse cx="2.67391" cy="12.2946" rx="0.170825" ry="0.170825" transform="rotate(162.191 2.67391 12.2946)" fill="#61EBA9"/>
<circle cx="3.63796" cy="13.0615" r="0.170825" transform="rotate(162.191 3.63796 13.0615)" fill="#61EBA9"/>
<ellipse cx="3.76607" cy="11.2262" rx="0.170825" ry="0.170825" transform="rotate(162.191 3.76607 11.2262)" fill="#61EBA9"/>
<circle cx="4.63149" cy="11.1275" r="0.170825" transform="rotate(162.191 4.63149 11.1275)" fill="#61EBA9"/>
<ellipse cx="3.0603" cy="11.5425" rx="0.256238" ry="0.256238" transform="rotate(162.191 3.0603 11.5425)" fill="#61EBA9"/>
<ellipse cx="3.32153" cy="12.3558" rx="0.256238" ry="0.256238" transform="rotate(162.191 3.32153 12.3558)" fill="#61EBA9"/>
<circle cx="3.09485" cy="13.3257" r="0.256238" transform="rotate(162.191 3.09485 13.3257)" fill="#61EBA9"/>
<circle cx="18.25" cy="7.5" r="0.25" fill="#2C9261"/>
<circle cx="17.5" cy="8" r="0.25" fill="#2C9261"/>
<circle cx="16.75" cy="6" r="0.25" fill="#2C9261"/>
<circle cx="18.5" cy="5.25" r="0.25" fill="#2C9261"/>
<circle cx="18" cy="4" r="0.25" fill="#2C9261"/>
<circle cx="17.5" cy="5" r="0.25" fill="#2C9261"/>
<circle cx="17.875" cy="6.375" r="0.375" fill="#2C9261"/>
<circle cx="19.375" cy="7.875" r="0.375" fill="#2C9261"/>
<circle cx="16.875" cy="7.125" r="0.375" fill="#2C9261"/>
<circle cx="8.61325" cy="4.82353" r="0.194318" transform="rotate(-104.42 8.61325 4.82353)" fill="#7CFABD"/>
<ellipse cx="9.13486" cy="5.29131" rx="0.194318" ry="0.194318" transform="rotate(-104.42 9.13486 5.29131)" fill="#7CFABD"/>
<circle cx="7.77445" cy="6.24303" r="0.194318" transform="rotate(-104.42 7.77445 6.24303)" fill="#7CFABD"/>
<ellipse cx="6.87113" cy="5.07085" rx="0.194318" ry="0.194318" transform="rotate(-104.42 6.87113 5.07085)" fill="#7CFABD"/>
<circle cx="6.02695" cy="5.68919" r="0.194318" transform="rotate(-104.42 6.02695 5.68919)" fill="#7CFABD"/>
<circle cx="6.8765" cy="5.87199" r="0.194318" transform="rotate(-104.42 6.8765 5.87199)" fill="#7CFABD"/>
<circle cx="7.83898" cy="5.32352" r="0.291477" transform="rotate(-104.42 7.83898 5.32352)" fill="#7CFABD"/>
<circle cx="8.67785" cy="3.90403" r="0.291477" transform="rotate(-104.42 8.67785 3.90403)" fill="#7CFABD"/>
<circle cx="8.59716" cy="5.93119" r="0.291477" transform="rotate(-104.42 8.59716 5.93119)" fill="#7CFABD"/>
</g>
<defs>
<clipPath id="clip0_73_39295">
<rect width="24" height="24" fill="white"/>
</clipPath>
</defs>
</svg>
