<svg width="17" height="18" viewBox="0 0 17 18" fill="none" xmlns="http://www.w3.org/2000/svg">
<mask id="path-1-outside-1_135_313" maskUnits="userSpaceOnUse" x="3.22107" y="0.805298" width="11" height="13" fill="black">
<rect fill="white" x="3.22107" y="0.805298" width="11" height="13"/>
<path fill-rule="evenodd" clip-rule="evenodd" d="M10.6632 12.2737H8.99516L9.45529 13.079H13.079L9.62785 7.03948L12.6188 1.8053H10.6632L8.65003 5.3283L6.63687 1.80528H4.68121L7.6722 7.03951L4.22107 13.079H7.84475L8.3049 12.2737H6.63685L8.65002 8.75068L10.6632 12.2737Z"/>
</mask>
<path fill-rule="evenodd" clip-rule="evenodd" d="M10.6632 12.2737H8.99516L9.45529 13.079H13.079L9.62785 7.03948L12.6188 1.8053H10.6632L8.65003 5.3283L6.63687 1.80528H4.68121L7.6722 7.03951L4.22107 13.079H7.84475L8.3049 12.2737H6.63685L8.65002 8.75068L10.6632 12.2737Z" fill="#AF3838"/>
<path d="M8.99516 12.2737V11.7737C8.81692 11.7737 8.65216 11.8686 8.5627 12.0228C8.47324 12.1769 8.47261 12.367 8.56104 12.5218L8.99516 12.2737ZM10.6632 12.2737V12.7737C10.8414 12.7737 11.0062 12.6788 11.0956 12.5247C11.1851 12.3705 11.1857 12.1804 11.0973 12.0257L10.6632 12.2737ZM9.45529 13.079L9.02117 13.327C9.11019 13.4828 9.27586 13.579 9.45529 13.579V13.079ZM13.079 13.079V13.579C13.2572 13.579 13.422 13.4841 13.5114 13.3299C13.6009 13.1758 13.6015 12.9856 13.5131 12.8309L13.079 13.079ZM9.62785 7.03948L9.19372 6.79141C9.10589 6.94513 9.10589 7.13384 9.19372 7.28755L9.62785 7.03948ZM12.6188 1.8053L13.0529 2.05337C13.1414 1.89862 13.1407 1.70849 13.0513 1.55433C12.9618 1.40018 12.797 1.3053 12.6188 1.3053V1.8053ZM10.6632 1.8053V1.3053C10.4837 1.3053 10.3181 1.40144 10.2291 1.55723L10.6632 1.8053ZM8.65003 5.3283L8.21591 5.57637C8.30493 5.73216 8.4706 5.8283 8.65003 5.8283C8.82946 5.8283 8.99513 5.73216 9.08415 5.57637L8.65003 5.3283ZM6.63687 1.80528L7.07099 1.55721C6.98197 1.40142 6.8163 1.30528 6.63687 1.30528V1.80528ZM4.68121 1.80528V1.30528C4.50298 1.30528 4.33822 1.40016 4.24876 1.55432C4.1593 1.70847 4.15866 1.8986 4.24709 2.05335L4.68121 1.80528ZM7.6722 7.03951L8.10632 7.28757C8.19416 7.13386 8.19416 6.94515 8.10632 6.79144L7.6722 7.03951ZM4.22107 13.079L3.78695 12.8309C3.69852 12.9857 3.69915 13.1758 3.78861 13.3299C3.87808 13.4841 4.04283 13.579 4.22107 13.579V13.079ZM7.84475 13.079V13.579C8.02418 13.579 8.18985 13.4828 8.27888 13.3271L7.84475 13.079ZM8.3049 12.2737L8.73902 12.5218C8.82745 12.367 8.82681 12.1769 8.73735 12.0228C8.64789 11.8686 8.48313 11.7737 8.3049 11.7737V12.2737ZM6.63685 12.2737L6.20273 12.0257C6.1143 12.1804 6.11493 12.3705 6.20439 12.5247C6.29385 12.6788 6.45861 12.7737 6.63685 12.7737V12.2737ZM8.65002 8.75068L9.08414 8.50261C8.99512 8.34683 8.82944 8.25068 8.65002 8.25068C8.47059 8.25068 8.30492 8.34683 8.21589 8.50261L8.65002 8.75068ZM8.99516 12.7737H10.6632V11.7737H8.99516V12.7737ZM9.88941 12.8309L9.42928 12.0257L8.56104 12.5218L9.02117 13.327L9.88941 12.8309ZM13.079 12.579H9.45529V13.579H13.079V12.579ZM9.19372 7.28755L12.6449 13.327L13.5131 12.8309L10.062 6.79141L9.19372 7.28755ZM10.062 7.28755L13.0529 2.05337L12.1847 1.55723L9.19372 6.79141L10.062 7.28755ZM12.6188 1.3053H10.6632V2.3053H12.6188V1.3053ZM10.2291 1.55723L8.21591 5.08023L9.08415 5.57637L11.0973 2.05337L10.2291 1.55723ZM6.20275 2.05335L8.21591 5.57637L9.08415 5.08023L7.07099 1.55721L6.20275 2.05335ZM4.68121 2.30528H6.63687V1.30528H4.68121V2.30528ZM8.10632 6.79144L5.11533 1.55721L4.24709 2.05335L7.23808 7.28757L8.10632 6.79144ZM7.23808 6.79144L3.78695 12.8309L4.65519 13.3271L8.10632 7.28757L7.23808 6.79144ZM4.22107 13.579H7.84475V12.579H4.22107V13.579ZM8.27888 13.3271L8.73902 12.5218L7.87078 12.0257L7.41063 12.8309L8.27888 13.3271ZM8.3049 11.7737H6.63685V12.7737H8.3049V11.7737ZM7.07097 12.5218L9.08414 8.99875L8.21589 8.50261L6.20273 12.0257L7.07097 12.5218ZM11.0973 12.0257L9.08414 8.50261L8.21589 8.99875L10.2291 12.5218L11.0973 12.0257Z" fill="#6F0808" mask="url(#path-1-outside-1_135_313)"/>
<mask id="path-3-outside-2_135_313" maskUnits="userSpaceOnUse" x="0" y="0" width="17" height="8" fill="black">
<rect fill="white" width="17" height="8"/>
<path fill-rule="evenodd" clip-rule="evenodd" d="M4.62368 1H1L4.48357 7.09624C5.2435 6.37185 6.19202 5.84355 7.24798 5.59251L4.62368 1ZM10.052 5.59249C11.108 5.8435 12.0565 6.37178 12.8165 7.09617L16.3 1H12.6763L10.052 5.59249Z"/>
</mask>
<path fill-rule="evenodd" clip-rule="evenodd" d="M4.62368 1H1L4.48357 7.09624C5.2435 6.37185 6.19202 5.84355 7.24798 5.59251L4.62368 1ZM10.052 5.59249C11.108 5.8435 12.0565 6.37178 12.8165 7.09617L16.3 1H12.6763L10.052 5.59249Z" fill="#D14848"/>
<path d="M1 1V0.5C0.821765 0.5 0.657006 0.594879 0.567545 0.749037C0.478084 0.903194 0.477449 1.09332 0.565878 1.24807L1 1ZM4.62368 1L5.05781 0.751931C4.96878 0.596143 4.80311 0.5 4.62368 0.5V1ZM4.48357 7.09624L4.04945 7.34431C4.12572 7.47779 4.25916 7.56876 4.41128 7.59099C4.5634 7.61322 4.71728 7.56423 4.82856 7.45816L4.48357 7.09624ZM7.24798 5.59251L7.36362 6.07896C7.5169 6.04252 7.64404 5.93597 7.70671 5.79142C7.76939 5.64687 7.76027 5.48124 7.6821 5.34445L7.24798 5.59251ZM10.052 5.59249L9.61791 5.34442C9.53974 5.48121 9.53062 5.64685 9.59329 5.7914C9.65597 5.93595 9.78311 6.0425 9.93639 6.07893L10.052 5.59249ZM12.8165 7.09617L12.4715 7.45809C12.5828 7.56416 12.7366 7.61314 12.8888 7.59091C13.0409 7.56868 13.1743 7.47771 13.2506 7.34424L12.8165 7.09617ZM16.3 1L16.7341 1.24807C16.8225 1.09332 16.8219 0.903194 16.7324 0.749037C16.643 0.594879 16.4782 0.5 16.3 0.5V1ZM12.6763 1V0.5C12.4969 0.5 12.3312 0.596143 12.2422 0.751931L12.6763 1ZM1 1.5H4.62368V0.5H1V1.5ZM4.91769 6.84817L1.43412 0.751931L0.565878 1.24807L4.04945 7.34431L4.91769 6.84817ZM4.82856 7.45816C5.52608 6.79325 6.39601 6.30899 7.36362 6.07896L7.13234 5.10607C5.98804 5.37811 4.96091 5.95045 4.13858 6.73433L4.82856 7.45816ZM4.18956 1.24807L6.81386 5.84058L7.6821 5.34445L5.05781 0.751931L4.18956 1.24807ZM9.93639 6.07893C10.904 6.30894 11.7739 6.79319 12.4715 7.45809L13.1615 6.73425C12.3391 5.95038 11.312 5.37806 10.1677 5.10604L9.93639 6.07893ZM15.8659 0.751931L12.3823 6.8481L13.2506 7.34424L16.7341 1.24807L15.8659 0.751931ZM12.6763 1.5H16.3V0.5H12.6763V1.5ZM10.4861 5.84056L13.1104 1.24807L12.2422 0.751931L9.61791 5.34442L10.4861 5.84056Z" fill="#6F0808" mask="url(#path-3-outside-2_135_313)"/>
<path d="M1.604 1.40259L4.52308 6.43548" stroke="#FF7E7E" stroke-width="0.5" stroke-linecap="round" stroke-linejoin="round"/>
<path d="M12.8776 1.40259L10.5625 5.4289" stroke="#FF7E7E" stroke-width="0.5" stroke-linecap="round" stroke-linejoin="round"/>
<circle cx="8.65003" cy="11.4684" r="5.88684" fill="#FFB423" stroke="#5B3303" stroke-width="0.5" stroke-linejoin="round"/>
<circle cx="8.65004" cy="11.4685" r="4.63026" fill="#FFDD65"/>
<circle cx="11.2033" cy="15.1817" r="0.402632" transform="rotate(-8.26953 11.2033 15.1817)" fill="#FBCD2C"/>
<circle cx="11.0577" cy="14.0073" r="0.377792" transform="rotate(-8.26953 11.0577 14.0073)" fill="#FBCD2C"/>
<circle cx="12.8172" cy="12.8173" r="0.301974" transform="rotate(-8.26953 12.8172 12.8173)" fill="#FBCD2C"/>
<circle cx="9.04083" cy="15.6994" r="0.402632" transform="rotate(-8.26953 9.04083 15.6994)" fill="#FBCD2C"/>
<circle cx="12.1627" cy="13.6579" r="0.363369" transform="rotate(-8.26953 12.1627 13.6579)" fill="#FBCD2C"/>
<circle cx="12.0993" cy="12.3006" r="0.201316" transform="rotate(-8.26953 12.0993 12.3006)" fill="#FBCD2C"/>
<circle cx="9.6835" cy="14.9176" r="0.201316" transform="rotate(-8.26953 9.6835 14.9176)" fill="#FBCD2C"/>
<circle cx="12.3407" cy="14.6095" r="0.201316" transform="rotate(-8.26953 12.3407 14.6095)" fill="#FBCD2C"/>
<circle cx="10.0861" cy="15.5216" r="0.201316" transform="rotate(-8.26953 10.0861 15.5216)" fill="#FBCD2C"/>
<circle cx="7.87442" cy="16.0723" r="0.201316" transform="rotate(-8.26953 7.87442 16.0723)" fill="#FBCD2C"/>
<circle cx="8.64994" cy="11.4684" r="4.83158" stroke="#DF8D12" stroke-width="0.5" stroke-linejoin="round"/>
<path d="M3.41577 11.4684C3.41577 8.57763 5.75921 6.23419 8.64998 6.23419" stroke="#FFCF72" stroke-width="0.5" stroke-linecap="round" stroke-linejoin="round"/>
<circle cx="8.65003" cy="11.4685" r="3.67237" fill="#FFCF23" stroke="#DF8D12" stroke-width="0.5"/>
<path d="M5.42896 11.4684C5.42896 9.68949 6.87107 8.24738 8.65001 8.24738" stroke="#FFF4CD" stroke-width="0.5" stroke-linecap="round" stroke-linejoin="round"/>
<path d="M6.58718 10.7402C6.49723 10.7585 6.42449 10.8245 6.39772 10.9123C6.37094 11.0001 6.39443 11.0955 6.4589 11.1609L7.37253 12.0867L7.14651 13.2319C7.12799 13.3257 7.1646 13.4218 7.24081 13.4795C7.31702 13.5373 7.41948 13.5465 7.50477 13.5033L8.65 12.923L9.79523 13.5033C9.88052 13.5465 9.98298 13.5373 10.0592 13.4795C10.1354 13.4218 10.172 13.3257 10.1535 13.2319L9.92747 12.0867L10.8411 11.1609C10.9056 11.0955 10.9291 11.0001 10.9023 10.9123C10.8755 10.8245 10.8028 10.7585 10.7128 10.7402L9.56346 10.5073L8.86512 9.32789C8.82011 9.25188 8.73833 9.20526 8.65 9.20526C8.56166 9.20526 8.47989 9.25188 8.43488 9.32789L8.05741 9.96539L7.73654 10.5073L6.58718 10.7402Z" fill="#FFE9AF" stroke="#C37808" stroke-width="0.5" stroke-linecap="round" stroke-linejoin="round"/>
<circle cx="14.2869" cy="1.80526" r="0.201316" fill="#A63434"/>
<circle cx="15.0922" cy="1.80526" r="0.201316" fill="#A63434"/>
<circle cx="14.0856" cy="3.81844" r="0.201316" fill="#A63434"/>
<circle cx="13.2803" cy="5.02633" r="0.201316" fill="#A63434"/>
<circle cx="13.4816" cy="2.4092" r="0.201316" fill="#A63434"/>
<circle cx="14.1863" cy="2.91251" r="0.301974" fill="#A63434"/>
<circle cx="13.381" cy="3.9191" r="0.301974" fill="#A63434"/>
</svg>
