<svg width="122" height="122" viewBox="0 0 122 122" fill="none" xmlns="http://www.w3.org/2000/svg">
<path d="M70.4748 -7.62939e-06H51.4982C45.2668 -7.62939e-06 39.3868 1.20992 34.0212 3.59618C32.0591 4.46777 30.1232 5.45141 28.2664 6.51794C24.299 8.79664 20.852 12.1015 18.2977 16.0741L4.69767 37.2277C1.63475 41.9935 0.0105309 47.3732 0 52.791V52.8851V66.7971C0 75.7058 2.4295 84.5607 7.02611 92.4095C7.55534 93.3125 8.22148 94.2087 9.00592 95.0736L19.9112 107.088C20.662 107.915 21.455 108.64 22.2683 109.243C33.146 117.309 46.8953 121.75 60.9836 121.75H61.062H61.127C68.2544 121.735 75.5969 120 82.368 116.738L93.5845 111.331C107.369 104.688 117.223 92.656 120.622 78.3183C121.514 74.5563 121.966 70.6801 121.966 66.7971V52.8851C121.966 52.1345 121.951 51.3794 121.917 50.6423C121.677 45.3656 119.995 40.1764 117.048 35.6369L104.797 16.7598C102.379 13.0359 99.1905 9.87885 95.5786 7.63376C93.282 6.20649 90.8554 4.91142 88.3661 3.78439C82.8295 1.27267 76.809 -7.62939e-06 70.4748 -7.62939e-06ZM70.4748 2.68873C76.2534 2.68873 81.9938 3.84713 87.257 6.23338C89.6589 7.32008 91.9623 8.55242 94.1581 9.91695C97.5369 12.0186 100.374 14.8866 102.54 18.2251L114.794 37.1C117.445 41.1869 119.011 45.8989 119.231 50.7655C119.262 51.4691 119.278 52.1749 119.278 52.8851V66.7971C119.278 70.5367 118.841 74.1821 118.007 77.6977C114.752 91.4281 105.128 102.784 92.4171 108.909L81.2006 114.316C74.9336 117.336 68.0841 119.046 61.127 119.062C61.08 119.062 61.0307 119.062 60.9836 119.062C46.8778 119.062 33.9522 114.56 23.8697 107.083C23.1536 106.552 22.5016 105.941 21.9022 105.28L10.9965 93.2654C10.3763 92.582 9.81253 91.8471 9.34604 91.0495C5.10008 83.8011 2.68873 75.5534 2.68873 66.7971V52.8919V52.8851C2.68873 52.856 2.68873 52.8247 2.68873 52.7955C2.69837 47.7855 4.24954 42.8965 6.95934 38.6819L20.5594 17.5283C22.8509 13.9657 25.9322 10.9588 29.6059 8.84818C31.3782 7.83094 33.2159 6.89661 35.1135 6.0519C40.2607 3.76424 45.8651 2.68873 51.4982 2.68873H70.4748Z" fill="#261301"/>
<mask id="mask0_23_44670" style="mask-type:luminance" maskUnits="userSpaceOnUse" x="2" y="14" width="118" height="106">
<path d="M81.2006 114.316L92.4172 108.909C105.128 102.784 114.752 91.4281 118.007 77.6977C118.841 74.1822 119.278 70.5367 119.278 66.7971V52.8852H117.174C110.38 30.7771 87.8037 14.5304 60.9836 14.5304C34.1631 14.5304 11.5878 30.7771 4.79291 52.8852H2.68875V66.7971C2.68875 75.5534 5.09987 83.8011 9.34606 91.0495C9.81255 91.8471 10.3763 92.582 10.9965 93.2654L21.9022 105.282C22.5013 105.941 23.1536 106.552 23.8697 107.083C33.9522 114.56 46.8779 119.062 60.9836 119.062C61.0307 119.062 61.08 119.062 61.127 119.062C68.0841 119.046 74.9337 117.336 81.2006 114.316Z" fill="white"/>
</mask>
<g mask="url(#mask0_23_44670)">
<path d="M81.2006 114.316L92.4172 108.909C105.128 102.784 114.752 91.4281 118.007 77.6977C118.841 74.1822 119.278 70.5367 119.278 66.7971V52.8852H117.174C110.38 30.7771 87.8037 14.5304 60.9836 14.5304C34.1631 14.5304 11.5878 30.7771 4.79291 52.8852H2.68875V66.7971C2.68875 75.5534 5.09987 83.8011 9.34606 91.0495C9.81255 91.8471 10.3763 92.582 10.9965 93.2654L21.9022 105.282C22.5013 105.941 23.1536 106.552 23.8697 107.083C33.9522 114.56 46.8779 119.062 60.9836 119.062C61.0307 119.062 61.08 119.062 61.127 119.062C68.0841 119.046 74.9337 117.336 81.2006 114.316Z" fill="url(#paint0_linear_23_44670)"/>
</g>
<mask id="mask1_23_44670" style="mask-type:luminance" maskUnits="userSpaceOnUse" x="9" y="72" width="20" height="36">
<path d="M9.29068 90.9509C9.3095 90.9845 9.32697 91.0181 9.34602 91.0495C9.81251 91.8472 10.3763 92.5821 10.9965 93.2654L21.9024 105.28C22.5013 105.941 23.1536 106.552 23.8697 107.083C24.1574 107.296 24.4556 107.498 24.7477 107.708L28.1127 83.94L10.0724 72.8288L9.29068 90.9509Z" fill="white"/>
</mask>
<g mask="url(#mask1_23_44670)">
<path d="M9.29068 90.9509C9.3095 90.9845 9.32697 91.0181 9.34602 91.0495C9.81251 91.8472 10.3763 92.5821 10.9965 93.2654L21.9024 105.28C22.5013 105.941 23.1536 106.552 23.8697 107.083C24.1574 107.296 24.4556 107.498 24.7477 107.708L28.1127 83.94L10.0724 72.8288L9.29068 90.9509Z" fill="url(#paint1_linear_23_44670)"/>
</g>
<mask id="mask2_23_44670" style="mask-type:luminance" maskUnits="userSpaceOnUse" x="2" y="52" width="9" height="39">
<path d="M10.0725 72.8288L3.45729 52.8852H2.68875V66.7971C2.68875 75.5131 5.07994 83.7272 9.29072 90.9509L10.0725 72.8288Z" fill="white"/>
</mask>
<g mask="url(#mask2_23_44670)">
<path d="M10.0725 72.8288L3.45729 52.8852H2.68875V66.7971C2.68875 75.5131 5.07994 83.7272 9.29072 90.9509L10.0725 72.8288Z" fill="url(#paint2_linear_23_44670)"/>
</g>
<mask id="mask3_23_44670" style="mask-type:luminance" maskUnits="userSpaceOnUse" x="100" y="43" width="20" height="60">
<path d="M118.007 77.6977C118.841 74.1821 119.278 70.5367 119.278 66.7971V52.8852H117.174C116.143 49.531 114.745 46.3157 113.028 43.2684L100.391 90.0009L101.895 99.1381L102.224 102.633C109.977 96.2701 115.657 87.6101 118.007 77.6977Z" fill="white"/>
</mask>
<g mask="url(#mask3_23_44670)">
<path d="M118.007 77.6977C118.841 74.1821 119.278 70.5367 119.278 66.7971V52.8852H117.174C116.143 49.531 114.745 46.3157 113.028 43.2684L100.391 90.0009L101.895 99.1381L102.224 102.633C109.977 96.2701 115.657 87.6101 118.007 77.6977Z" fill="url(#paint3_linear_23_44670)"/>
</g>
<mask id="mask4_23_44670" style="mask-type:luminance" maskUnits="userSpaceOnUse" x="66" y="90" width="36" height="29">
<path d="M100.391 90.0009L66.7375 98.9633L67.6292 115.703L67.869 118.504C72.4802 117.775 76.9748 116.353 81.2006 114.316L92.4171 108.909C95.8341 107.263 99.018 105.226 101.926 102.88L100.391 90.0009Z" fill="white"/>
</mask>
<g mask="url(#mask4_23_44670)">
<path d="M100.391 90.0009L66.7375 98.9633L67.6292 115.703L67.869 118.504C72.4802 117.775 76.9748 116.353 81.2006 114.316L92.4171 108.909C95.8341 107.263 99.018 105.226 101.926 102.88L100.391 90.0009Z" fill="url(#paint4_linear_23_44670)"/>
</g>
<mask id="mask5_23_44670" style="mask-type:luminance" maskUnits="userSpaceOnUse" x="2" y="2" width="118" height="104">
<path d="M119.231 50.7655C119.011 45.8989 117.445 41.1869 114.794 37.1001L102.54 18.2252C100.374 14.8866 97.5369 12.0187 94.1581 9.91697C91.9623 8.55244 89.6589 7.3201 87.257 6.2334C81.9938 3.84715 76.2534 2.68875 70.4748 2.68875H51.4982C45.8653 2.68875 40.2607 3.76425 35.1135 6.05192C33.216 6.89663 31.3782 7.83096 29.6059 8.8482C25.9319 10.9589 22.8507 13.9658 20.5592 17.5283L6.95914 38.6819C4.24957 42.8965 2.69861 47.7855 2.68875 52.7955C2.68875 52.8247 2.68875 52.856 2.68875 52.8852C2.68875 58.0946 3.54242 63.1225 5.12631 67.8681C6.22847 71.1708 8.01334 74.2046 10.3532 76.7813L24.8403 92.7434C26.8069 94.91 29.1284 96.7294 31.7224 98.085C40.3225 102.573 50.3147 105.152 60.9836 105.152C62.6036 105.152 64.2079 105.091 65.7942 104.975C69.6503 104.69 73.4168 103.671 76.8987 101.993L97.519 92.0533C101.203 90.2787 104.546 87.8342 107.207 84.7332C114.776 75.9142 119.278 64.8724 119.278 52.8852C119.278 52.1749 119.262 51.4691 119.231 50.7655Z" fill="white"/>
</mask>
<g mask="url(#mask5_23_44670)">
<path d="M119.231 50.7655C119.011 45.8989 117.445 41.1869 114.794 37.1001L102.54 18.2252C100.374 14.8866 97.5369 12.0187 94.1581 9.91697C91.9623 8.55244 89.6589 7.3201 87.257 6.2334C81.9938 3.84715 76.2534 2.68875 70.4748 2.68875H51.4982C45.8653 2.68875 40.2607 3.76425 35.1135 6.05192C33.216 6.89663 31.3782 7.83096 29.6059 8.8482C25.9319 10.9589 22.8507 13.9658 20.5592 17.5283L6.95914 38.6819C4.24957 42.8965 2.69861 47.7855 2.68875 52.7955C2.68875 52.8247 2.68875 52.856 2.68875 52.8852C2.68875 58.0946 3.54242 63.1225 5.12631 67.8681C6.22847 71.1708 8.01334 74.2046 10.3532 76.7813L24.8403 92.7434C26.8069 94.91 29.1284 96.7294 31.7224 98.085C40.3225 102.573 50.3147 105.152 60.9836 105.152C62.6036 105.152 64.2079 105.091 65.7942 104.975C69.6503 104.69 73.4168 103.671 76.8987 101.993L97.519 92.0533C101.203 90.2787 104.546 87.8342 107.207 84.7332C114.776 75.9142 119.278 64.8724 119.278 52.8852C119.278 52.1749 119.262 51.4691 119.231 50.7655Z" fill="url(#paint5_linear_23_44670)"/>
</g>
<path d="M119.262 52.1771C119.096 63.9 114.633 74.6953 107.207 83.344C104.546 86.445 101.2 88.8918 97.519 90.6663L76.8987 100.603C73.4168 102.284 69.6503 103.301 65.7942 103.586C64.2079 103.704 62.6036 103.765 60.9836 103.765C50.3147 103.765 40.3225 101.186 31.7224 96.6958C29.1286 95.3425 26.8069 93.5209 24.8403 91.3542L10.3532 75.3943C8.01334 72.8154 6.22847 69.7816 5.12631 66.4812C3.63026 61.9977 2.79518 57.2588 2.70645 52.3586C2.70332 52.5043 2.68921 52.6499 2.68898 52.7955C2.68876 52.8247 2.68875 52.856 2.68875 52.8852C2.68875 58.0946 3.54242 63.1225 5.12631 67.8681C6.13616 70.8929 7.7252 73.6892 9.78342 76.1203V80.8368L10.7164 77.1823L24.8403 92.7434C25.1175 93.0481 25.4173 93.3304 25.7083 93.6217L25.6479 93.5926V101.22L27.3054 95.0871C28.6684 96.2365 30.1371 97.256 31.7224 98.085C40.3225 102.573 50.3147 105.152 60.9836 105.152C62.6036 105.152 64.2079 105.091 65.7942 104.975C66.025 104.957 66.2513 104.93 66.4798 104.908L67.6293 115.703V104.775C70.8423 104.341 73.9702 103.404 76.8987 101.993L97.519 92.0533C98.3704 91.6432 99.2017 91.1929 100.013 90.7111L99.9994 90.7246C100.179 92.0398 100.385 93.3887 100.622 94.7711C100.898 96.3911 101.2 97.955 101.518 99.463C101.427 97.6638 101.33 95.8578 101.229 94.0496C101.156 92.7277 101.082 91.408 101.005 90.0905C103.309 88.6027 105.415 86.8192 107.207 84.7332C114.776 75.9141 119.278 64.8724 119.278 52.8852C119.278 52.6477 119.266 52.4146 119.262 52.1771Z" fill="#C7B299"/>
<path d="M85.8925 53.9203H83.6519C83.4323 53.75 83.1992 53.5909 82.9483 53.4453L52.193 35.6885C48.2663 33.421 43.3576 36.2553 43.3576 40.7903V76.3018C43.3576 80.8368 48.2663 83.6711 52.193 81.4036L82.9483 63.6468C84.9223 62.5086 85.9014 60.5099 85.8925 58.5158V53.9203Z" fill="#472117"/>
<path d="M82.9483 48.8185L52.193 31.0639C48.2661 28.7964 43.3576 31.6307 43.3576 36.1635V71.6772C43.3576 76.2122 48.2661 79.0465 52.193 76.779L82.9483 59.0222C86.8761 56.7547 86.8761 51.086 82.9483 48.8185Z" fill="#704F3C"/>
<defs>
<linearGradient id="paint0_linear_23_44670" x1="60.9836" y1="119.062" x2="60.9836" y2="14.5306" gradientUnits="userSpaceOnUse">
<stop stop-color="#472117"/>
<stop offset="0.348214" stop-color="#472117"/>
<stop offset="0.789759" stop-color="#A36841"/>
<stop offset="1" stop-color="#A36841"/>
</linearGradient>
<linearGradient id="paint1_linear_23_44670" x1="9.29068" y1="90.2675" x2="28.1129" y2="90.2675" gradientUnits="userSpaceOnUse">
<stop stop-color="#A36841"/>
<stop offset="0.853876" stop-color="#472117"/>
<stop offset="1" stop-color="#472117"/>
</linearGradient>
<linearGradient id="paint2_linear_23_44670" x1="2.68875" y1="71.9192" x2="10.0725" y2="71.9192" gradientUnits="userSpaceOnUse">
<stop stop-color="#472117"/>
<stop offset="0.52301" stop-color="#472117"/>
<stop offset="1" stop-color="#A36841"/>
</linearGradient>
<linearGradient id="paint3_linear_23_44670" x1="109.833" y1="102.633" x2="109.833" y2="43.2678" gradientUnits="userSpaceOnUse">
<stop stop-color="#472117"/>
<stop offset="0.0867163" stop-color="#472117"/>
<stop offset="1" stop-color="#A36841"/>
</linearGradient>
<linearGradient id="paint4_linear_23_44670" x1="66.7375" y1="104.253" x2="101.925" y2="104.253" gradientUnits="userSpaceOnUse">
<stop stop-color="#472117"/>
<stop offset="0.458854" stop-color="#472117"/>
<stop offset="1" stop-color="#A36841"/>
</linearGradient>
<linearGradient id="paint5_linear_23_44670" x1="60.9836" y1="105.152" x2="60.9836" y2="2.68987" gradientUnits="userSpaceOnUse">
<stop stop-color="#63433B"/>
<stop offset="1" stop-color="#4F2A0A"/>
</linearGradient>
</defs>
</svg>
