<svg width="44" height="46" viewBox="0 0 44 46" fill="none" xmlns="http://www.w3.org/2000/svg">
<path fill-rule="evenodd" clip-rule="evenodd" d="M13.6916 37.538C13.476 37.4802 13.2921 37.3391 13.1805 37.1458L6.79536 26.0864C6.68374 25.8931 6.65349 25.6633 6.71127 25.4477L9.30363 15.7729C9.3614 15.5573 9.50248 15.3734 9.69581 15.2618L20.7552 8.8767C20.9485 8.76508 21.1783 8.73483 21.3939 8.79261L31.0687 11.385C31.2843 11.4427 31.4682 11.5838 31.5798 11.7771L37.9649 22.8365C38.0765 23.0298 38.1068 23.2596 38.049 23.4752L35.4566 33.15C35.3989 33.3656 35.2578 33.5495 35.0645 33.6611L24.0051 40.0462C23.8118 40.1579 23.582 40.1881 23.3664 40.1303L13.6916 37.538ZM26.3783 31.3865C30.2029 29.1784 31.5133 24.2879 29.3052 20.4633C27.0971 16.6387 22.2066 15.3283 18.382 17.5364C14.5573 19.7445 13.2469 24.6351 15.4551 28.4597C17.6632 32.2843 22.5537 33.5947 26.3783 31.3865Z" fill="#DF8D12"/>
<path fill-rule="evenodd" clip-rule="evenodd" d="M12.4515 37.5667L6.06641 26.5073C5.84318 26.1207 5.78268 25.6611 5.89824 25.2299L8.49059 15.5551C8.60615 15.1238 8.88829 14.7561 9.27495 14.5329L20.3343 8.14776C20.721 7.92452 21.1805 7.86402 21.6118 7.97958L31.2865 10.5719C31.7178 10.6875 32.0855 10.9696 32.3087 11.3563L38.6939 22.4157C38.9171 22.8023 38.9776 23.2618 38.8621 23.6931L36.2697 33.3679C36.1541 33.7992 35.872 34.1668 35.4853 34.3901L24.426 40.7752C24.0393 40.9985 23.5798 41.059 23.1485 40.9434L13.4737 38.351C13.0425 38.2355 12.6748 37.9533 12.4515 37.5667ZM25.9575 30.6576C29.3795 28.6819 30.5519 24.3062 28.5762 20.8842C26.6005 17.4621 22.2248 16.2897 18.8028 18.2654C15.3808 20.2411 14.2083 24.6168 16.184 28.0388C18.1597 31.4608 22.5355 32.6333 25.9575 30.6576ZM13.1805 37.1458C13.2921 37.3392 13.476 37.4802 13.6916 37.538L23.3664 40.1304C23.582 40.1881 23.8118 40.1579 24.0051 40.0463L35.0645 33.6611C35.2578 33.5495 35.3989 33.3657 35.4567 33.15L38.049 23.4752C38.1068 23.2596 38.0765 23.0299 37.9649 22.8365L31.5798 11.7772C31.4682 11.5838 31.2843 11.4428 31.0687 11.385L21.3939 8.79262C21.1783 8.73485 20.9485 8.76509 20.7552 8.87671L9.69581 15.2618C9.50248 15.3735 9.36141 15.5573 9.30363 15.7729L6.71128 25.4477C6.6535 25.6634 6.68375 25.8931 6.79537 26.0864L13.1805 37.1458ZM29.3052 20.4633C31.5133 24.2879 30.2029 29.1784 26.3783 31.3865C22.5537 33.5947 17.6632 32.2843 15.4551 28.4597C13.2469 24.6351 14.5574 19.7446 18.382 17.5364C22.2066 15.3283 27.0971 16.6387 29.3052 20.4633Z" fill="#5B3303"/>
<path d="M6.71127 25.4477L9.30363 15.7729C9.3614 15.5573 9.50248 15.3734 9.69581 15.2618L15.2255 12.0693L18.382 17.5364C14.5573 19.7445 13.2469 24.6351 15.4551 28.4597L6.79536 26.0864C6.68374 25.8931 6.65349 25.6633 6.71127 25.4477Z" fill="#B06A00"/>
<path d="M13.3548 37.4478L11.6714 34.5319L22.0197 37.3048L23.7031 40.2206L13.3548 37.4478Z" fill="#FCB326"/>
<path d="M31.5798 11.7772L37.9649 22.8366C38.0765 23.0299 38.1068 23.2597 38.049 23.4753L35.4566 33.1501L30.3772 24.3522C30.3603 23.0288 30.014 21.6911 29.3052 20.4634L31.5798 11.7772Z" fill="#B06A00"/>
<path fill-rule="evenodd" clip-rule="evenodd" d="M12.0082 34.6222C11.7925 34.5644 11.6087 34.4233 11.4971 34.23L5.11192 23.1706C5.0003 22.9773 4.97005 22.7475 5.02783 22.5319L7.62019 12.8571C7.67796 12.6415 7.81903 12.4576 8.01237 12.346L19.0717 5.96089C19.2651 5.84927 19.4948 5.81903 19.7105 5.87681L29.3852 8.46916C29.6009 8.52694 29.7847 8.66801 29.8963 8.86134L36.2815 19.9207C36.3931 20.114 36.4233 20.3438 36.3656 20.5594L33.7732 30.2342C33.7154 30.4498 33.5744 30.6337 33.381 30.7453L22.3217 37.1304C22.1283 37.2421 21.8986 37.2723 21.6829 37.2145L12.0082 34.6222ZM24.6949 28.4707C28.5195 26.2626 29.8299 21.3721 27.6218 17.5475C25.4136 13.7229 20.5231 12.4125 16.6985 14.6206C12.8739 16.8287 11.5635 21.7192 13.7716 25.5439C15.9798 29.3685 20.8703 30.6789 24.6949 28.4707Z" fill="#FCB326"/>
<path fill-rule="evenodd" clip-rule="evenodd" d="M10.7681 34.6508L4.38294 23.5915C4.1597 23.2048 4.09921 22.7453 4.21476 22.314L6.80712 12.6393C6.92267 12.208 7.20482 11.8403 7.59148 11.6171L18.6509 5.23193C19.0375 5.00869 19.497 4.94819 19.9283 5.06375L29.6031 7.6561C30.0343 7.77166 30.402 8.0538 30.6253 8.44046L37.0104 19.4998C37.2336 19.8865 37.2941 20.346 37.1786 20.7773L34.5862 30.4521C34.4707 30.8833 34.1885 31.251 33.8019 31.4743L22.7425 37.8594C22.3558 38.0826 21.8963 38.1431 21.4651 38.0276L11.7903 35.4352C11.359 35.3197 10.9913 35.0375 10.7681 34.6508ZM24.274 27.7418C27.696 25.7661 28.8685 21.3903 26.8928 17.9683C24.9171 14.5463 20.5414 13.3738 17.1193 15.3496C13.6973 17.3253 12.5249 21.701 14.5006 25.123C16.4763 28.545 20.852 29.7175 24.274 27.7418ZM11.497 34.23C11.6086 34.4233 11.7925 34.5644 12.0081 34.6222L21.6829 37.2145C21.8986 37.2723 22.1283 37.2421 22.3216 37.1304L33.381 30.7453C33.5743 30.6337 33.7154 30.4498 33.7732 30.2342L36.3655 20.5594C36.4233 20.3438 36.3931 20.114 36.2814 19.9207L29.8963 8.86132C29.7847 8.66799 29.6008 8.52692 29.3852 8.46914L19.7104 5.87679C19.4948 5.81901 19.265 5.84926 19.0717 5.96088L8.01234 12.346C7.81901 12.4576 7.67794 12.6415 7.62016 12.8571L5.02781 22.5319C4.97003 22.7475 5.00028 22.9773 5.11189 23.1706L11.497 34.23ZM27.6217 17.5475C29.8299 21.3721 28.5195 26.2626 24.6949 28.4707C20.8703 30.6788 15.9797 29.3684 13.7716 25.5438C11.5635 21.7192 12.8739 16.8287 16.6985 14.6206C20.5231 12.4125 25.4136 13.7229 27.6217 17.5475Z" fill="#5B3303"/>
<path d="M11.4971 34.23L5.11192 23.1706C5.0003 22.9773 4.97005 22.7475 5.02783 22.5319L7.62018 12.8571C7.67796 12.6415 7.81903 12.4576 8.01237 12.346L19.0717 5.96089L16.6985 14.6206C12.8739 16.8287 11.5635 21.7192 13.7716 25.5439L11.4971 34.23Z" fill="#FFC555"/>
<path d="M13.6397 11.584C13.7559 11.7853 13.6869 12.0427 13.4856 12.1589C13.2843 12.2751 13.0269 12.2062 12.9107 12.0049C12.7945 11.8036 12.8635 11.5462 13.0648 11.43C13.2661 11.3137 13.5235 11.3827 13.6397 11.584Z" fill="#FFDC97"/>
<path d="M14.9022 10.3214C15.0185 10.5227 14.9495 10.7801 14.7482 10.8963C14.5469 11.0125 14.2895 10.9436 14.1733 10.7423C14.0571 10.541 14.126 10.2836 14.3273 10.1674C14.5286 10.0512 14.786 10.1201 14.9022 10.3214Z" fill="#FFDC97"/>
<path d="M16.7717 9.38856C16.8588 9.53953 16.8071 9.73258 16.6561 9.81974C16.5052 9.9069 16.3121 9.85518 16.225 9.7042C16.1378 9.55323 16.1895 9.36019 16.3405 9.27302C16.4915 9.18586 16.6845 9.23759 16.7717 9.38856Z" fill="#FFDC97"/>
<path d="M13.4048 10.6512C13.492 10.8021 13.4402 10.9952 13.2893 11.0823C13.1383 11.1695 12.9452 11.1178 12.8581 10.9668C12.7709 10.8158 12.8226 10.6228 12.9736 10.5356C13.1246 10.4485 13.3176 10.5002 13.4048 10.6512Z" fill="#FFDC97"/>
<path d="M15.3106 12.2364C15.3379 12.3384 15.2774 12.4433 15.1753 12.4707C15.0733 12.498 14.9684 12.4375 14.941 12.3354C14.9137 12.2334 14.9742 12.1285 15.0763 12.1011C15.1783 12.0738 15.2832 12.1343 15.3106 12.2364Z" fill="#FFDC97"/>
<path d="M14.8028 11.4043C14.8301 11.5064 14.7696 11.6113 14.6675 11.6386C14.5655 11.666 14.4606 11.6054 14.4332 11.5034C14.4059 11.4013 14.4665 11.2964 14.5685 11.2691C14.6706 11.2417 14.7754 11.3023 14.8028 11.4043Z" fill="#FFDC97"/>
<path d="M11.4359 11.8252C11.4632 11.9272 11.4027 12.0321 11.3006 12.0595C11.1986 12.0868 11.0937 12.0262 11.0663 11.9242C11.039 11.8221 11.0995 11.7172 11.2016 11.6899C11.3036 11.6626 11.4085 11.7231 11.4359 11.8252Z" fill="#FFDC97"/>
<path d="M12.2776 11.8252C12.3049 11.9272 12.2444 12.0321 12.1423 12.0595C12.0403 12.0868 11.9354 12.0262 11.908 11.9242C11.8807 11.8221 11.9412 11.7172 12.0433 11.6899C12.1453 11.6626 12.2502 11.7231 12.2776 11.8252Z" fill="#FFDC97"/>
<path d="M11.8567 12.6669C11.8841 12.769 11.8235 12.8738 11.7215 12.9012C11.6194 12.9285 11.5145 12.868 11.4872 12.7659C11.4598 12.6639 11.5204 12.559 11.6225 12.5316C11.7245 12.5043 11.8294 12.5649 11.8567 12.6669Z" fill="#FFDC97"/>
<path d="M10.5941 12.246C10.6215 12.3481 10.5609 12.453 10.4589 12.4803C10.3568 12.5077 10.2519 12.4471 10.2246 12.3451C10.1972 12.243 10.2578 12.1381 10.3599 12.1108C10.4619 12.0834 10.5668 12.144 10.5941 12.246Z" fill="#FFDC97"/>
<path d="M13.1194 13.0878C13.1467 13.1898 13.0861 13.2947 12.9841 13.3221C12.882 13.3494 12.7771 13.2888 12.7498 13.1868C12.7225 13.0847 12.783 12.9798 12.8851 12.9525C12.9871 12.9252 13.092 12.9857 13.1194 13.0878Z" fill="#FFDC97"/>
<path d="M14.3819 12.246C14.4092 12.3481 14.3487 12.453 14.2466 12.4803C14.1446 12.5077 14.0397 12.4471 14.0123 12.3451C13.985 12.243 14.0456 12.1381 14.1476 12.1108C14.2497 12.0834 14.3546 12.144 14.3819 12.246Z" fill="#FFDC97"/>
<path d="M15.6445 8.87918C15.6718 8.98123 15.6113 9.08613 15.5092 9.11347C15.4072 9.14081 15.3023 9.08025 15.2749 8.9782C15.2476 8.87615 15.3082 8.77126 15.4102 8.74392C15.5123 8.71657 15.6172 8.77713 15.6445 8.87918Z" fill="#FFDC97"/>
<path d="M16.9071 8.03745C16.9344 8.1395 16.8739 8.24439 16.7718 8.27173C16.6698 8.29908 16.5649 8.23852 16.5375 8.13647C16.5102 8.03442 16.5707 7.92952 16.6728 7.90218C16.7748 7.87484 16.8797 7.9354 16.9071 8.03745Z" fill="#FFDC97"/>
<path d="M16.0654 10.9835C16.0927 11.0855 16.0322 11.1904 15.9301 11.2177C15.8281 11.2451 15.7232 11.1845 15.6958 11.0825C15.6685 10.9804 15.729 10.8755 15.8311 10.8482C15.9331 10.8209 16.038 10.8814 16.0654 10.9835Z" fill="#FFDC97"/>
<path d="M15.6445 9.72089C15.6718 9.82294 15.6113 9.92783 15.5092 9.95518C15.4072 9.98252 15.3023 9.92196 15.2749 9.81991C15.2476 9.71786 15.3082 9.61297 15.4102 9.58562C15.5123 9.55828 15.6172 9.61884 15.6445 9.72089Z" fill="#FFDC97"/>
<path fill-rule="evenodd" clip-rule="evenodd" d="M32.9427 29.8841C32.7182 29.8239 32.585 29.5931 32.6451 29.3686L35.0648 20.3385L29.0494 9.91963C28.9332 9.71833 29.0022 9.46094 29.2035 9.34472C29.4048 9.2285 29.6622 9.29747 29.7784 9.49876L35.8809 20.0686C35.9367 20.1653 35.9518 20.2801 35.9229 20.3879L33.4582 29.5865C33.398 29.811 33.1672 29.9442 32.9427 29.8841Z" fill="#EBA215"/>
<path fill-rule="evenodd" clip-rule="evenodd" d="M8.45061 13.2073C8.67513 13.2674 8.80837 13.4982 8.74821 13.7227L6.32859 22.7528L12.3439 33.1717C12.4601 33.373 12.3912 33.6304 12.1899 33.7466C11.9886 33.8628 11.7312 33.7939 11.615 33.5926L5.51247 23.0227C5.45666 22.9261 5.44154 22.8112 5.47043 22.7034L7.93516 13.5049C7.99532 13.2803 8.2261 13.1471 8.45061 13.2073Z" fill="#FFEDCA"/>
<path fill-rule="evenodd" clip-rule="evenodd" d="M5.66654 22.4478C5.86783 22.3316 6.12523 22.4006 6.24145 22.6018L7.2936 24.4242C7.40982 24.6255 7.34085 24.8829 7.13956 24.9991C6.93826 25.1154 6.68087 25.0464 6.56465 24.8451L5.51249 23.0227C5.39628 22.8214 5.46524 22.564 5.66654 22.4478Z" fill="#FAFEFF"/>
<path fill-rule="evenodd" clip-rule="evenodd" d="M16.4881 14.2561C12.4622 16.5805 11.0828 21.7284 13.4071 25.7543C15.7315 29.7802 20.8794 31.1595 24.9053 28.8352C28.9312 26.5108 30.3106 21.3629 27.9862 17.337C25.6619 13.3111 20.514 11.9318 16.4881 14.2561ZM12.6782 26.1751C10.1214 21.7466 11.6387 16.084 16.0672 13.5272C20.4957 10.9704 26.1584 12.4877 28.7152 16.9162C31.2719 21.3447 29.7546 27.0074 25.3261 29.5641C20.8977 32.1209 15.235 30.6036 12.6782 26.1751Z" fill="#FFC961"/>
<path fill-rule="evenodd" clip-rule="evenodd" d="M12.6453 17.8748C12.8612 17.9609 12.9664 18.2057 12.8803 18.4216C12.0979 20.383 12.057 22.6197 12.8795 24.6698C12.966 24.8856 12.8613 25.1306 12.6456 25.2171C12.4298 25.3037 12.1848 25.199 12.0983 24.9832C11.1927 22.7259 11.2387 20.2652 12.0984 18.1098C12.1845 17.8939 12.4294 17.7886 12.6453 17.8748Z" fill="#FFDE9E"/>
<path d="M28.2495 29.5772C28.4239 29.8792 28.3204 30.2652 28.0185 30.4396C27.7165 30.6139 27.3304 30.5104 27.1561 30.2085C26.9818 29.9066 27.0852 29.5205 27.3872 29.3461C27.6891 29.1718 28.0752 29.2753 28.2495 29.5772Z" fill="#E79F13"/>
<path d="M29.3918 28.1888C29.508 28.3901 29.439 28.6475 29.2377 28.7637C29.0365 28.8799 28.7791 28.8109 28.6628 28.6096C28.5466 28.4083 28.6156 28.1509 28.8169 28.0347C29.0182 27.9185 29.2756 27.9875 29.3918 28.1888Z" fill="#E79F13"/>
<path d="M31.8867 25.7764C32.003 25.9777 31.934 26.2351 31.7327 26.3513C31.5314 26.4675 31.274 26.3985 31.1578 26.1972C31.0416 25.9959 31.1105 25.7386 31.3118 25.6223C31.5131 25.5061 31.7705 25.5751 31.8867 25.7764Z" fill="#E79F13"/>
<path d="M30.226 27.9502C30.2841 28.0508 30.2496 28.1795 30.1489 28.2376C30.0483 28.2957 29.9196 28.2612 29.8615 28.1606C29.8034 28.0599 29.8379 27.9312 29.9385 27.8731C30.0392 27.815 30.1679 27.8495 30.226 27.9502Z" fill="#E79F13"/>
<path d="M28.3623 31.456C28.4204 31.5566 28.3859 31.6853 28.2853 31.7434C28.1846 31.8015 28.0559 31.7671 27.9978 31.6664C27.9397 31.5658 27.9742 31.4371 28.0748 31.379C28.1755 31.3209 28.3042 31.3553 28.3623 31.456Z" fill="#E79F13"/>
<path d="M26.6376 30.9938C26.6957 31.0945 26.6612 31.2232 26.5606 31.2813C26.4599 31.3394 26.3312 31.3049 26.2731 31.2043C26.215 31.1036 26.2495 30.9749 26.3501 30.9168C26.4508 30.8587 26.5795 30.8932 26.6376 30.9938Z" fill="#E79F13"/>
<path d="M25.965 32.3541C26.0231 32.4547 25.9886 32.5834 25.888 32.6416C25.7873 32.6997 25.6586 32.6652 25.6005 32.5645C25.5424 32.4639 25.5769 32.3352 25.6776 32.2771C25.7782 32.219 25.9069 32.2535 25.965 32.3541Z" fill="#E79F13"/>
<path d="M23.3009 31.9483C23.359 32.049 23.3245 32.1777 23.2239 32.2358C23.1232 32.2939 22.9945 32.2594 22.9364 32.1588C22.8783 32.0581 22.9128 31.9294 23.0134 31.8713C23.1141 31.8132 23.2428 31.8477 23.3009 31.9483Z" fill="#E79F13"/>
<path d="M31.5298 27.6833C31.5879 27.784 31.5535 27.9127 31.4528 27.9708C31.3522 28.0289 31.2235 27.9944 31.1654 27.8938C31.1072 27.7931 31.1417 27.6644 31.2424 27.6063C31.343 27.5482 31.4717 27.5827 31.5298 27.6833Z" fill="#E79F13"/>
<path d="M30.9398 24.1362C30.9979 24.2369 30.9634 24.3656 30.8628 24.4237C30.7621 24.4818 30.6334 24.4473 30.5753 24.3467C30.5172 24.246 30.5517 24.1173 30.6523 24.0592C30.753 24.0011 30.8817 24.0356 30.9398 24.1362Z" fill="#E79F13"/>
<path d="M31.8792 24.0799C31.9373 24.1805 31.9028 24.3092 31.8022 24.3673C31.7015 24.4254 31.5728 24.3909 31.5147 24.2903C31.4566 24.1896 31.4911 24.0609 31.5917 24.0028C31.6924 23.9447 31.8211 23.9792 31.8792 24.0799Z" fill="#E79F13"/>
<path d="M31.0375 22.622C31.0956 22.7226 31.0611 22.8513 30.9604 22.9094C30.8598 22.9675 30.7311 22.933 30.673 22.8324C30.6149 22.7317 30.6494 22.603 30.75 22.5449C30.8507 22.4868 30.9794 22.5213 31.0375 22.622Z" fill="#E79F13"/>
<path d="M30.9625 29.2258C31.0787 29.4271 31.0097 29.6845 30.8084 29.8007C30.6071 29.917 30.3497 29.848 30.2335 29.6467C30.1173 29.4454 30.1863 29.188 30.3876 29.0718C30.5889 28.9556 30.8463 29.0245 30.9625 29.2258Z" fill="#E79F13"/>
<path d="M29.715 30.432C29.8312 30.6333 29.7622 30.8907 29.5609 31.0069C29.3596 31.1231 29.1023 31.0542 28.986 30.8529C28.8698 30.6516 28.9388 30.3942 29.1401 30.278C29.3414 30.1618 29.5988 30.2307 29.715 30.432Z" fill="#E79F13"/>
<path d="M25.0745 31.6533C25.1907 31.8546 25.1217 32.112 24.9204 32.2282C24.7191 32.3445 24.4617 32.2755 24.3455 32.0742C24.2293 31.8729 24.2983 31.6155 24.4996 31.4993C24.7009 31.3831 24.9583 31.452 25.0745 31.6533Z" fill="#E79F13"/>
<path d="M30.2184 26.2536C30.3346 26.4549 30.2657 26.7123 30.0644 26.8285C29.8631 26.9448 29.6057 26.8758 29.4895 26.6745C29.3732 26.4732 29.4422 26.2158 29.6435 26.0996C29.8448 25.9834 30.1022 26.0523 30.2184 26.2536Z" fill="#E79F13"/>
</svg>
