<svg width="20" height="20" viewBox="0 0 20 20" fill="none" xmlns="http://www.w3.org/2000/svg">
<path d="M5.71746 6.86672L1.72883 7.66698C0.555653 7.90236 0.116811 9.34922 0.961559 10.1967L4.26905 13.5146C4.3868 13.6328 4.4379 13.8018 4.40529 13.9654L3.65975 17.7049C3.41561 18.9295 4.68718 19.8988 5.80332 19.339L9.77583 17.3464C9.9169 17.2757 10.0831 17.2757 10.2242 17.3464L14.1967 19.339C15.3128 19.8988 16.5844 18.9295 16.3403 17.7049L15.5947 13.9654C15.5621 13.8018 15.6132 13.6328 15.731 13.5146L19.0384 10.1967C19.8832 9.34922 19.4443 7.90236 18.2712 7.66698L14.2825 6.86672C14.1443 6.83899 14.0242 6.75416 13.9518 6.63314L11.2873 2.17824C10.7051 1.20484 9.29488 1.20484 8.71268 2.17824L7.69589 3.87827L6.0482 6.63314C5.97582 6.75416 5.85571 6.83899 5.71746 6.86672Z" fill="#F7B307" stroke="#5B3303" stroke-linecap="round" stroke-linejoin="round"/>
<path d="M9.04764 10.7619L6.90479 14.0952" stroke="#FFC530" stroke-linecap="round" stroke-linejoin="round"/>
<path d="M18.747 9.78087L17.4662 11.0658C16.2162 12.3197 14.2905 12.6027 12.7326 11.7614L10 10.2857L13.7923 7.19049C13.9018 7.26977 14.0281 7.3257 14.1635 7.35287L18.2598 8.17473C19.0047 8.32418 19.2833 9.24282 18.747 9.78087Z" fill="#FFC01D"/>
<path d="M11.9048 9.57141L15.7143 9.09521" stroke="#FFD363" stroke-linecap="round" stroke-linejoin="round"/>
<path d="M9.57302 16.8888L5.49206 18.9358C5.1466 19.109 4.77769 19.0516 4.50824 18.8571L10 10.2857L19.0255 9.09521C19.03 9.33718 18.9428 9.58438 18.747 9.78083L15.3589 13.1797C15.1346 13.4047 15.0373 13.7267 15.0994 14.0383L15.869 17.8983C16.024 18.6758 15.2166 19.2912 14.508 18.9358L10.427 16.8888C10.1583 16.754 9.84173 16.754 9.57302 16.8888Z" fill="#CF9500"/>
<path d="M15.0994 14.0383L15.869 17.8983C15.9484 18.2968 15.7751 18.6527 15.4918 18.8571L10 10.2857L15.3589 13.1797C15.1346 13.4047 15.0373 13.7267 15.0994 14.0383Z" fill="#B97D08"/>
<path d="M1.74019 8.17471L5.8365 7.35284C6.09984 7.30001 6.32863 7.13843 6.4665 6.90793L9.18267 2.3666C9.36749 2.05759 9.68374 1.90308 9.99999 1.90308V10.2857L1.00891 8.85713C1.09845 8.53068 1.35792 8.2514 1.74019 8.17471Z" fill="#FFD056"/>
<path d="M2.85712 8.61908L9.40474 9.45241L9.52378 3.38098" stroke="#FFE39A" stroke-linecap="round" stroke-linejoin="round"/>
<path d="M9.40474 9.4524L7.85712 9.25543" stroke="#FFFBF0" stroke-linecap="round" stroke-linejoin="round"/>
<circle cx="9.88095" cy="12.0714" r="0.357143" fill="#BA8600"/>
<circle cx="10.8333" cy="13.0238" r="0.119048" fill="#BA8600"/>
<circle cx="9.16665" cy="13.9762" r="0.119048" fill="#BA8600"/>
<circle cx="10.5952" cy="13.7381" r="0.119048" fill="#BA8600"/>
<circle cx="12.2619" cy="14.6905" r="0.119048" fill="#BA8600"/>
<circle cx="10.5952" cy="12.0714" r="0.119048" fill="#BA8600"/>
<circle cx="9.88095" cy="11.119" r="0.119048" fill="#BA8600"/>
<circle cx="11.0714" cy="14.4524" r="0.119048" fill="#BA8600"/>
<circle cx="10.2381" cy="12.9048" r="0.238095" fill="#BA8600"/>
<circle cx="10" cy="13.8571" r="0.238095" fill="#BA8600"/>
<circle cx="11.4286" cy="13.8571" r="0.238095" fill="#BA8600"/>
<circle cx="9.2857" cy="13.1429" r="0.238095" fill="#BA8600"/>
</svg>
