<svg width="32" height="30" viewBox="0 0 32 30" fill="none" xmlns="http://www.w3.org/2000/svg">
<path d="M14.1067 19.4144C13.8835 18.3464 14.6589 17.25 15.75 17.25V17.25C16.8411 17.25 17.6165 18.3464 17.3933 19.4144C17.184 20.4165 17.0473 21.5848 17.25 22.5C17.8183 25.0658 20.25 27.75 20.25 27.75H11.25C11.25 27.75 13.6817 25.0658 14.25 22.5C14.4527 21.5848 14.316 20.4165 14.1067 19.4144Z" fill="#F6B307"/>
<path fill-rule="evenodd" clip-rule="evenodd" d="M20.9356 28.054C20.8154 28.3252 20.5466 28.5 20.25 28.5H11.25C10.9534 28.5 10.6846 28.3252 10.5644 28.054C10.4442 27.7829 10.495 27.4664 10.694 27.2466L11.25 27.75H20.25C20.25 27.75 19.9947 27.4682 19.6303 27C18.8699 26.0231 17.6342 24.2345 17.25 22.5C17.0473 21.5848 17.184 20.4165 17.3933 19.4144C17.6165 18.3464 16.8412 17.25 15.75 17.25C14.6589 17.25 13.8835 18.3464 14.1067 19.4144C14.316 20.4165 14.4527 21.5848 14.25 22.5C13.8658 24.2345 12.6301 26.0231 11.8697 27C11.5053 27.4682 11.25 27.75 11.25 27.75M10.694 27.2466L10.6983 27.2419L10.7158 27.2222C10.7317 27.2042 10.756 27.1766 10.7876 27.1399C10.8508 27.0665 10.9433 26.9574 11.0566 26.8178C11.2836 26.5382 11.5925 26.139 11.918 25.6635C12.5802 24.6963 13.265 23.479 13.5178 22.3378C13.6843 21.5861 13.5776 20.5495 13.3725 19.5678C13.0667 18.1037 14.1141 16.5 15.75 16.5C17.3859 16.5 18.4334 18.1037 18.1275 19.5678C17.9224 20.5495 17.8158 21.5861 17.9823 22.3378C18.235 23.479 18.9198 24.6963 19.582 25.6635C19.9075 26.139 20.2164 26.5382 20.4434 26.8178C20.5568 26.9574 20.6492 27.0665 20.7124 27.1399C20.7441 27.1766 20.7683 27.2042 20.7843 27.2222L20.8017 27.2419L20.8058 27.2465C21.0049 27.4663 21.0558 27.7829 20.9356 28.054" fill="#5B3303"/>
<path fill-rule="evenodd" clip-rule="evenodd" d="M18.75 27.75H20.25C20.25 27.75 17.8183 25.0658 17.25 22.5C17.0473 21.5848 17.184 20.4165 17.3933 19.4144C17.6165 18.3464 16.8411 17.25 15.75 17.25C15.5033 17.25 15.2728 17.306 15.0663 17.4051C15.6161 17.6661 15.8933 18.2793 15.8933 19.4144C15.8933 20.8427 15.9223 22.8973 16.125 23.8125C16.6933 26.3783 18.75 27.75 18.75 27.75Z" fill="#C18B00"/>
<path fill-rule="evenodd" clip-rule="evenodd" d="M14.5285 23.8237C14.7294 23.874 14.8515 24.0776 14.8013 24.2785C14.6011 25.0795 14.2049 25.8688 13.812 26.458C13.6971 26.6304 13.4643 26.6769 13.292 26.562C13.1197 26.4472 13.0731 26.2143 13.188 26.042C13.5451 25.5063 13.899 24.7955 14.0737 24.0966C14.1239 23.8957 14.3275 23.7735 14.5285 23.8237Z" fill="#FFCB43"/>
<path fill-rule="evenodd" clip-rule="evenodd" d="M26.625 11.25C28.9032 11.25 30.75 9.40317 30.75 7.125C30.75 4.84683 28.9032 3 26.625 3C24.3468 3 22.5 4.84683 22.5 7.125C22.5 9.40317 24.3468 11.25 26.625 11.25ZM26.625 9.375C27.8676 9.375 28.875 8.36764 28.875 7.125C28.875 5.88236 27.8676 4.875 26.625 4.875C25.3824 4.875 24.375 5.88236 24.375 7.125C24.375 8.36764 25.3824 9.375 26.625 9.375Z" fill="#F6B307"/>
<path fill-rule="evenodd" clip-rule="evenodd" d="M31.5 7.125C31.5 9.81739 29.3174 12 26.625 12C23.9326 12 21.75 9.81739 21.75 7.125C21.75 4.43261 23.9326 2.25 26.625 2.25C29.3174 2.25 31.5 4.43261 31.5 7.125ZM26.625 8.625C27.4534 8.625 28.125 7.95343 28.125 7.125C28.125 6.29657 27.4534 5.625 26.625 5.625C25.7966 5.625 25.125 6.29657 25.125 7.125C25.125 7.95343 25.7966 8.625 26.625 8.625ZM30.75 7.125C30.75 9.40318 28.9032 11.25 26.625 11.25C24.3468 11.25 22.5 9.40318 22.5 7.125C22.5 4.84683 24.3468 3 26.625 3C28.9032 3 30.75 4.84683 30.75 7.125ZM28.875 7.125C28.875 8.36764 27.8676 9.375 26.625 9.375C25.3824 9.375 24.375 8.36764 24.375 7.125C24.375 5.88236 25.3824 4.875 26.625 4.875C27.8676 4.875 28.875 5.88236 28.875 7.125Z" fill="#5B3303"/>
<path fill-rule="evenodd" clip-rule="evenodd" d="M30.375 6.375C30.375 8.65317 28.5282 10.5 26.25 10.5C24.784 10.5 23.4966 9.73527 22.765 8.58297C23.3541 10.1416 24.8601 11.25 26.625 11.25C28.9032 11.25 30.75 9.40318 30.75 7.125C30.75 6.3128 30.5153 5.55543 30.1099 4.91703C30.2812 5.37033 30.375 5.86172 30.375 6.375ZM24.4594 7.73767C24.4044 7.54289 24.375 7.33738 24.375 7.125C24.375 5.88236 25.3823 4.875 26.625 4.875C27.3554 4.875 28.0045 5.22304 28.4156 5.76233C28.1488 4.81745 27.2802 4.125 26.25 4.125C25.0073 4.125 24 5.13236 24 6.375C24 6.88723 24.1712 7.35948 24.4594 7.73767Z" fill="#D29700"/>
<path fill-rule="evenodd" clip-rule="evenodd" d="M4.875 11.25C7.15317 11.25 9 9.40317 9 7.125C9 4.84683 7.15317 3 4.875 3C2.59683 3 0.75 4.84683 0.75 7.125C0.75 9.40317 2.59683 11.25 4.875 11.25ZM4.875 9.375C6.11764 9.375 7.125 8.36764 7.125 7.125C7.125 5.88236 6.11764 4.875 4.875 4.875C3.63236 4.875 2.625 5.88236 2.625 7.125C2.625 8.36764 3.63236 9.375 4.875 9.375Z" fill="#F6B307"/>
<path fill-rule="evenodd" clip-rule="evenodd" d="M9.75 7.125C9.75 9.81739 7.56739 12 4.875 12C2.18261 12 0 9.81739 0 7.125C0 4.43261 2.18261 2.25 4.875 2.25C7.56739 2.25 9.75 4.43261 9.75 7.125ZM4.875 8.625C5.70343 8.625 6.375 7.95343 6.375 7.125C6.375 6.29657 5.70343 5.625 4.875 5.625C4.04657 5.625 3.375 6.29657 3.375 7.125C3.375 7.95343 4.04657 8.625 4.875 8.625ZM9 7.125C9 9.40318 7.15318 11.25 4.875 11.25C2.59683 11.25 0.75 9.40318 0.75 7.125C0.75 4.84683 2.59683 3 4.875 3C7.15318 3 9 4.84683 9 7.125ZM7.125 7.125C7.125 8.36764 6.11764 9.375 4.875 9.375C3.63236 9.375 2.625 8.36764 2.625 7.125C2.625 5.88236 3.63236 4.875 4.875 4.875C6.11764 4.875 7.125 5.88236 7.125 7.125Z" fill="#5B3303"/>
<path fill-rule="evenodd" clip-rule="evenodd" d="M7.97332 9.84831C7.2468 10.4874 6.29366 10.875 5.25 10.875C2.97183 10.875 1.125 9.02817 1.125 6.74999C1.125 5.70633 1.51259 4.75319 2.15168 4.02667C1.2923 4.78263 0.75 5.89048 0.75 7.12499C0.75 9.40317 2.59683 11.25 4.875 11.25C6.10951 11.25 7.21736 10.7077 7.97332 9.84831ZM3.48253 5.35752C3.86558 5.05533 4.34923 4.87499 4.875 4.87499C6.11764 4.87499 7.125 5.88235 7.125 7.12499C7.125 7.65076 6.94466 8.13441 6.64247 8.51746C7.16475 8.10543 7.5 7.46686 7.5 6.74999C7.5 5.50735 6.49264 4.49999 5.25 4.49999C4.53313 4.49999 3.89456 4.83525 3.48253 5.35752Z" fill="#D29700"/>
<path d="M5.25 5.25C5.25 3.59315 6.59315 2.25 8.25 2.25H23.25C24.9069 2.25 26.25 3.59315 26.25 5.25V9.75C26.25 15.549 21.549 20.25 15.75 20.25C9.95101 20.25 5.25 15.549 5.25 9.75V5.25Z" fill="#FFCF23"/>
<path fill-rule="evenodd" clip-rule="evenodd" d="M8.25 1.5H23.25C25.3211 1.5 27 3.17893 27 5.25V9.75C27 15.9632 21.9632 21 15.75 21C9.5368 21 4.5 15.9632 4.5 9.75V5.25C4.5 3.17893 6.17893 1.5 8.25 1.5ZM8.25 2.25C6.59315 2.25 5.25 3.59315 5.25 5.25V9.75C5.25 15.549 9.95101 20.25 15.75 20.25C21.549 20.25 26.25 15.549 26.25 9.75V5.25C26.25 3.59315 24.9069 2.25 23.25 2.25H8.25Z" fill="#5B3303"/>
<path fill-rule="evenodd" clip-rule="evenodd" d="M13.125 19.9192C13.964 20.1351 14.8436 20.25 15.75 20.25C21.549 20.25 26.25 15.549 26.25 9.75V2.25H21V9.75C21 14.6426 17.6537 18.7536 13.125 19.9192Z" fill="#FFC429"/>
<path d="M5.25 2.25V9.75C5.25 13.3297 7.04132 16.491 9.77645 18.3864C11.0774 19.2879 13.5476 16.196 13.5069 14.6137C13.5022 14.4302 13.5 14.2463 13.5 14.0625V2.25H5.25Z" fill="#FFDB5B"/>
<path fill-rule="evenodd" clip-rule="evenodd" d="M10.3253 18.742C11.9085 19.6992 13.7649 20.25 15.75 20.25C21.549 20.25 26.25 15.549 26.25 9.75V2.25H24.7499V9C24.7499 14.799 20.0489 19.5 14.2499 19.5C12.8624 19.5 11.5378 19.2309 10.3253 18.742Z" fill="#F5B40C"/>
<path d="M26.25 2.25H5.25V3.75H26.25V2.25Z" fill="#D29803"/>
<path fill-rule="evenodd" clip-rule="evenodd" d="M6.75 3.375C7.16421 3.375 7.5 3.71079 7.5 4.125C7.5 6.67464 7.50155 8.72578 7.72743 10.3748C7.95243 12.0173 8.38628 13.1381 9.15529 13.9072C9.44818 14.2001 9.44817 14.6749 9.15528 14.9678C8.86238 15.2607 8.38751 15.2607 8.09462 14.9678C6.98867 13.8619 6.48505 12.3577 6.24131 10.5783C5.99998 8.81662 5.99999 6.66512 6 4.17239L6 4.125C6 3.71079 6.33579 3.375 6.75 3.375Z" fill="#FFEBA6"/>
<path fill-rule="evenodd" clip-rule="evenodd" d="M6.75 4.5C6.95711 4.5 7.125 4.66789 7.125 4.875C7.125 5.36801 7.12085 5.66119 7.11747 5.89938C7.11233 6.2619 7.109 6.49702 7.12487 7.11537C7.13019 7.32241 6.96666 7.49456 6.75962 7.49988C6.55258 7.50519 6.38044 7.34166 6.37512 7.13463C6.35895 6.50467 6.36247 6.24959 6.36768 5.87319C6.371 5.63292 6.375 5.34321 6.375 4.875C6.375 4.66789 6.5429 4.5 6.75 4.5Z" fill="white"/>
<path d="M8.25 28.5C8.25 28.0858 8.58579 27.75 9 27.75H22.5C22.9142 27.75 23.25 28.0858 23.25 28.5V28.5C23.25 28.9142 22.9142 29.25 22.5 29.25H9C8.58579 29.25 8.25 28.9142 8.25 28.5V28.5Z" fill="#FFD84F"/>
<path fill-rule="evenodd" clip-rule="evenodd" d="M9 27H22.5C23.3284 27 24 27.6716 24 28.5C24 29.3284 23.3284 30 22.5 30H9C8.17157 30 7.5 29.3284 7.5 28.5C7.5 27.6716 8.17157 27 9 27ZM9 27.75C8.58579 27.75 8.25 28.0858 8.25 28.5C8.25 28.9142 8.58579 29.25 9 29.25H22.5C22.9142 29.25 23.25 28.9142 23.25 28.5C23.25 28.0858 22.9142 27.75 22.5 27.75H9Z" fill="#5B3303"/>
<path d="M2.25 1.5C2.25 1.08579 2.58579 0.75 3 0.75H28.5C28.9142 0.75 29.25 1.08579 29.25 1.5V1.5C29.25 1.91421 28.9142 2.25 28.5 2.25H3C2.58579 2.25 2.25 1.91421 2.25 1.5V1.5Z" fill="#FFD84F"/>
<path fill-rule="evenodd" clip-rule="evenodd" d="M3 0H28.5C29.3284 0 30 0.671572 30 1.5C30 2.32843 29.3284 3 28.5 3H3C2.17157 3 1.5 2.32843 1.5 1.5C1.5 0.671573 2.17157 0 3 0ZM3 0.75C2.58579 0.75 2.25 1.08579 2.25 1.5C2.25 1.91421 2.58579 2.25 3 2.25H28.5C28.9142 2.25 29.25 1.91421 29.25 1.5C29.25 1.08579 28.9142 0.75 28.5 0.75H3Z" fill="#5B3303"/>
<path fill-rule="evenodd" clip-rule="evenodd" d="M3 1.3125C3 1.10539 3.16789 0.9375 3.375 0.9375H22.5C22.7071 0.9375 22.875 1.10539 22.875 1.3125C22.875 1.51961 22.7071 1.6875 22.5 1.6875H3.375C3.16789 1.6875 3 1.51961 3 1.3125Z" fill="#FFEBA6"/>
<path fill-rule="evenodd" clip-rule="evenodd" d="M8.625 28.125C8.625 27.9179 8.79289 27.75 9 27.75H19.875C20.0821 27.75 20.25 27.9179 20.25 28.125C20.25 28.3321 20.0821 28.5 19.875 28.5H9C8.79289 28.5 8.625 28.3321 8.625 28.125Z" fill="#FFEBA6"/>
<path fill-rule="evenodd" clip-rule="evenodd" d="M5.25 1.3125C5.25 1.10539 5.41789 0.9375 5.625 0.9375H7.875C8.08211 0.9375 8.25 1.10539 8.25 1.3125C8.25 1.51961 8.08211 1.6875 7.875 1.6875H5.625C5.41789 1.6875 5.25 1.51961 5.25 1.3125Z" fill="white"/>
<path d="M19.5 17.4375C19.5 17.7482 19.2482 18 18.9375 18C18.6268 18 18.375 17.7482 18.375 17.4375C18.375 17.1268 18.6268 16.875 18.9375 16.875C19.2482 16.875 19.5 17.1268 19.5 17.4375Z" fill="#E6A809"/>
<path d="M21.375 16.125C21.375 16.3321 21.2071 16.5 21 16.5C20.7929 16.5 20.625 16.3321 20.625 16.125C20.625 15.9179 20.7929 15.75 21 15.75C21.2071 15.75 21.375 15.9179 21.375 16.125Z" fill="#E6A809"/>
<path d="M18.375 18.75C18.375 18.9571 18.2071 19.125 18 19.125C17.7929 19.125 17.625 18.9571 17.625 18.75C17.625 18.5429 17.7929 18.375 18 18.375C18.2071 18.375 18.375 18.5429 18.375 18.75Z" fill="#E6A809"/>
<path d="M17.25 17.625C17.25 17.8321 17.0821 18 16.875 18C16.6679 18 16.5 17.8321 16.5 17.625C16.5 17.4179 16.6679 17.25 16.875 17.25C17.0821 17.25 17.25 17.4179 17.25 17.625Z" fill="#E6A809"/>
<path d="M15.75 18.75C15.75 18.9571 15.5821 19.125 15.375 19.125C15.1679 19.125 15 18.9571 15 18.75C15 18.5429 15.1679 18.375 15.375 18.375C15.5821 18.375 15.75 18.5429 15.75 18.75Z" fill="#E6A809"/>
<path d="M24.75 13.5C24.75 13.7071 24.5821 13.875 24.375 13.875C24.1679 13.875 24 13.7071 24 13.5C24 13.2929 24.1679 13.125 24.375 13.125C24.5821 13.125 24.75 13.2929 24.75 13.5Z" fill="#E6A809"/>
<path d="M21.375 14.625C21.375 14.8321 21.2071 15 21 15C20.7929 15 20.625 14.8321 20.625 14.625C20.625 14.4179 20.7929 14.25 21 14.25C21.2071 14.25 21.375 14.4179 21.375 14.625Z" fill="#E6A809"/>
<path d="M25.125 11.625C25.125 11.8321 24.9571 12 24.75 12C24.5429 12 24.375 11.8321 24.375 11.625C24.375 11.4179 24.5429 11.25 24.75 11.25C24.9571 11.25 25.125 11.4179 25.125 11.625Z" fill="#E6A809"/>
<path d="M19.5 15.375C19.5 15.5821 19.3321 15.75 19.125 15.75C18.9179 15.75 18.75 15.5821 18.75 15.375C18.75 15.1679 18.9179 15 19.125 15C19.3321 15 19.5 15.1679 19.5 15.375Z" fill="#E6A809"/>
<path d="M21 17.625C21 17.8321 20.8321 18 20.625 18C20.4179 18 20.25 17.8321 20.25 17.625C20.25 17.4179 20.4179 17.25 20.625 17.25C20.8321 17.25 21 17.4179 21 17.625Z" fill="#E6A809"/>
<path d="M23.25 16.125C23.25 16.3321 23.0821 16.5 22.875 16.5C22.6679 16.5 22.5 16.3321 22.5 16.125C22.5 15.9179 22.6679 15.75 22.875 15.75C23.0821 15.75 23.25 15.9179 23.25 16.125Z" fill="#E6A809"/>
<path d="M22.5 14.625C22.5 14.8321 22.3321 15 22.125 15C21.9179 15 21.75 14.8321 21.75 14.625C21.75 14.4179 21.9179 14.25 22.125 14.25C22.3321 14.25 22.5 14.4179 22.5 14.625Z" fill="#E6A809"/>
<path d="M24 14.4375C24 14.5411 23.9161 14.625 23.8125 14.625C23.7089 14.625 23.625 14.5411 23.625 14.4375C23.625 14.3339 23.7089 14.25 23.8125 14.25C23.9161 14.25 24 14.3339 24 14.4375Z" fill="#E6A809"/>
<path d="M23.625 12.9375C23.625 13.0411 23.5411 13.125 23.4375 13.125C23.3339 13.125 23.25 13.0411 23.25 12.9375C23.25 12.8339 23.3339 12.75 23.4375 12.75C23.5411 12.75 23.625 12.8339 23.625 12.9375Z" fill="#E6A809"/>
<path d="M22.5 13.3125C22.5 13.4161 22.4161 13.5 22.3125 13.5C22.2089 13.5 22.125 13.4161 22.125 13.3125C22.125 13.2089 22.2089 13.125 22.3125 13.125C22.4161 13.125 22.5 13.2089 22.5 13.3125Z" fill="#E6A809"/>
<path d="M23.625 11.8125C23.625 11.9161 23.5411 12 23.4375 12C23.3339 12 23.25 11.9161 23.25 11.8125C23.25 11.7089 23.3339 11.625 23.4375 11.625C23.5411 11.625 23.625 11.7089 23.625 11.8125Z" fill="#E6A809"/>
<path d="M21.375 13.3125C21.375 13.4161 21.2911 13.5 21.1875 13.5C21.0839 13.5 21 13.4161 21 13.3125C21 13.2089 21.0839 13.125 21.1875 13.125C21.2911 13.125 21.375 13.2089 21.375 13.3125Z" fill="#E6A809"/>
<path d="M15.375 17.4375C15.375 17.5411 15.2911 17.625 15.1875 17.625C15.0839 17.625 15 17.5411 15 17.4375C15 17.3339 15.0839 17.25 15.1875 17.25C15.2911 17.25 15.375 17.3339 15.375 17.4375Z" fill="#E6A809"/>
<path d="M23.25 14.8125C23.25 14.9161 23.1661 15 23.0625 15C22.9589 15 22.875 14.9161 22.875 14.8125C22.875 14.7089 22.9589 14.625 23.0625 14.625C23.1661 14.625 23.25 14.7089 23.25 14.8125Z" fill="#E6A809"/>
<path d="M22.125 17.0625C22.125 17.1661 22.0411 17.25 21.9375 17.25C21.8339 17.25 21.75 17.1661 21.75 17.0625C21.75 16.9589 21.8339 16.875 21.9375 16.875C22.0411 16.875 22.125 16.9589 22.125 17.0625Z" fill="#E6A809"/>
<path d="M20.25 16.3125C20.25 16.4161 20.1661 16.5 20.0625 16.5C19.9589 16.5 19.875 16.4161 19.875 16.3125C19.875 16.2089 19.9589 16.125 20.0625 16.125C20.1661 16.125 20.25 16.2089 20.25 16.3125Z" fill="#E6A809"/>
<path d="M18.375 16.3125C18.375 16.4161 18.2911 16.5 18.1875 16.5C18.0839 16.5 18 16.4161 18 16.3125C18 16.2089 18.0839 16.125 18.1875 16.125C18.2911 16.125 18.375 16.2089 18.375 16.3125Z" fill="#E6A809"/>
<path d="M16.875 18.9375C16.875 19.0411 16.7911 19.125 16.6875 19.125C16.5839 19.125 16.5 19.0411 16.5 18.9375C16.5 18.8339 16.5839 18.75 16.6875 18.75C16.7911 18.75 16.875 18.8339 16.875 18.9375Z" fill="#E6A809"/>
<path fill-rule="evenodd" clip-rule="evenodd" d="M3.89798 3.76983C3.99059 3.95507 3.9155 4.18032 3.73026 4.27294C3.38749 4.44431 2.92573 4.73969 2.55001 5.24065C2.17816 5.73644 1.875 6.45388 1.875 7.50002C1.875 7.70713 1.70711 7.87502 1.5 7.87502C1.29289 7.87502 1.125 7.70713 1.125 7.50002C1.125 6.29616 1.47809 5.41985 1.95001 4.79064C2.41805 4.1666 2.98757 3.80574 3.39487 3.60211C3.58011 3.50949 3.80536 3.58458 3.89798 3.76983Z" fill="#FFD953"/>
<path d="M12 9.6L14.3437 9.125L15.0469 7.9375L15.75 6.75L17.1562 9.125L19.5 9.6L17.625 11.5L18.0937 13.875L15.75 12.6875L13.4062 13.875L13.875 11.5L12 9.6Z" fill="#FFEBA6"/>
<path fill-rule="evenodd" clip-rule="evenodd" d="M14.3437 9.125L15.75 6.75L17.1562 9.125L19.5 9.6L17.625 11.5L18.0937 13.875L15.75 12.6875L13.4062 13.875L13.875 11.5L12 9.6L14.3437 9.125ZM13.0623 11.7442L11.4662 10.1268C11.2727 9.93081 11.2023 9.64459 11.2826 9.3812C11.3629 9.11782 11.5811 8.91964 11.851 8.86494L13.8682 8.45613L15.1046 6.36788C15.2396 6.13985 15.485 6 15.75 6C16.015 6 16.2603 6.13985 16.3953 6.36788L17.6318 8.45613L19.649 8.86494C19.9188 8.91964 20.137 9.11782 20.2174 9.3812C20.2977 9.64459 20.2272 9.93081 20.0338 10.1268L18.4377 11.7442L18.8295 13.7298C18.8851 14.0112 18.7753 14.2996 18.5466 14.4728C18.318 14.646 18.0106 14.6737 17.7548 14.544L15.75 13.5283L13.7452 14.544C13.4894 14.6737 13.182 14.646 12.9533 14.4728C12.7247 14.2996 12.6149 14.0112 12.6704 13.7298L13.0623 11.7442Z" fill="#F5B40C"/>
<path fill-rule="evenodd" clip-rule="evenodd" d="M15.9177 7.91461C16.1029 8.00723 16.178 8.23248 16.0854 8.41773L15.3354 9.91773C15.2785 10.0315 15.1678 10.1087 15.0414 10.1227L13.3539 10.3102C13.1481 10.3331 12.9627 10.1848 12.9398 9.97893C12.9169 9.77309 13.0653 9.58769 13.2711 9.56481L14.7558 9.39984L15.4146 8.08232C15.5072 7.89707 15.7325 7.82199 15.9177 7.91461Z" fill="white"/>
</svg>
