<svg width="290" height="53" viewBox="0 0 290 53" fill="none" xmlns="http://www.w3.org/2000/svg">
<mask id="path-1-outside-1_107_206" maskUnits="userSpaceOnUse" x="-1" y="-1" width="292" height="55" fill="black">
<rect fill="white" x="-1" y="-1" width="292" height="55"/>
<path d="M25.4951 51H15.1729V10.4971H0.373047V1.67871H40.2949V10.4971H25.4951V51ZM69.2793 0.414062C76.571 0.414062 82.3359 2.73828 86.5742 7.38672C90.8353 12.0352 92.9658 18.347 92.9658 26.3223C92.9658 34.3203 90.8353 40.6436 86.5742 45.292C82.3359 49.9404 76.571 52.2646 69.2793 52.2646C61.9648 52.2646 56.1771 49.9404 51.916 45.292C47.6549 40.6436 45.5244 34.3203 45.5244 26.3223C45.5244 18.347 47.6663 12.0352 51.9502 7.38672C56.234 2.73828 62.0104 0.414062 69.2793 0.414062ZM78.8496 14.0518C76.4798 10.9984 73.2897 9.47168 69.2793 9.47168C65.2689 9.47168 62.0674 10.9984 59.6748 14.0518C57.2822 17.0824 56.0859 21.1725 56.0859 26.3223C56.0859 31.472 57.2708 35.5736 59.6406 38.627C62.0332 41.6803 65.2461 43.207 69.2793 43.207C73.2897 43.207 76.4798 41.6803 78.8496 38.627C81.2422 35.5736 82.4385 31.472 82.4385 26.3223C82.4385 21.1725 81.2422 17.0824 78.8496 14.0518ZM102.741 1.67871H123.317C128.399 1.67871 132.512 3.25098 135.656 6.39551C138.824 9.51725 140.407 13.6302 140.407 18.7344C140.407 23.793 138.778 27.8831 135.52 31.0049C132.261 34.1266 128.023 35.6875 122.805 35.6875H113.063V51H102.741V1.67871ZM113.063 10.1553V27.3135H120.549C123.534 27.3135 125.835 26.5843 127.453 25.126C129.094 23.6449 129.914 21.5257 129.914 18.7686C129.914 15.9886 129.105 13.8581 127.487 12.377C125.869 10.8958 123.568 10.1553 120.583 10.1553H113.063ZM178.894 51V11.7275H178.278L166.179 20.0674V10.4629L178.928 1.67871H189.216V51H178.894ZM236.247 45.3945C232.784 49.9746 227.998 52.2646 221.892 52.2646C215.785 52.2646 210.988 49.9746 207.502 45.3945C204.038 40.7917 202.307 34.4115 202.307 26.2539C202.307 18.1191 204.038 11.7845 207.502 7.25C210.988 2.69271 215.785 0.414062 221.892 0.414062C227.976 0.414062 232.761 2.69271 236.247 7.25C239.733 11.8073 241.477 18.1533 241.477 26.2881C241.477 34.4229 239.733 40.7917 236.247 45.3945ZM215.158 39.3105C216.776 42.3411 219.021 43.8564 221.892 43.8564C224.763 43.8564 226.996 42.3525 228.591 39.3447C230.209 36.3141 231.018 31.9505 231.018 26.2539C231.018 20.6029 230.209 16.2962 228.591 13.334C226.996 10.349 224.763 8.85645 221.892 8.85645C219.043 8.85645 216.81 10.349 215.192 13.334C213.575 16.319 212.766 20.6257 212.766 26.2539C212.766 31.9277 213.563 36.2799 215.158 39.3105ZM284.167 45.3945C280.703 49.9746 275.918 52.2646 269.812 52.2646C263.705 52.2646 258.908 49.9746 255.422 45.3945C251.958 40.7917 250.227 34.4115 250.227 26.2539C250.227 18.1191 251.958 11.7845 255.422 7.25C258.908 2.69271 263.705 0.414062 269.812 0.414062C275.896 0.414062 280.681 2.69271 284.167 7.25C287.653 11.8073 289.396 18.1533 289.396 26.2881C289.396 34.4229 287.653 40.7917 284.167 45.3945ZM263.078 39.3105C264.696 42.3411 266.94 43.8564 269.812 43.8564C272.683 43.8564 274.916 42.3525 276.511 39.3447C278.129 36.3141 278.938 31.9505 278.938 26.2539C278.938 20.6029 278.129 16.2962 276.511 13.334C274.916 10.349 272.683 8.85645 269.812 8.85645C266.963 8.85645 264.73 10.349 263.112 13.334C261.494 16.319 260.686 20.6257 260.686 26.2539C260.686 31.9277 261.483 36.2799 263.078 39.3105Z"/>
</mask>
<path d="M25.4951 51V52H26.4951V51H25.4951ZM15.1729 51H14.1729V52H15.1729V51ZM15.1729 10.4971H16.1729V9.49707H15.1729V10.4971ZM0.373047 10.4971H-0.626953V11.4971H0.373047V10.4971ZM0.373047 1.67871V0.678711H-0.626953V1.67871H0.373047ZM40.2949 1.67871H41.2949V0.678711H40.2949V1.67871ZM40.2949 10.4971V11.4971H41.2949V10.4971H40.2949ZM25.4951 10.4971V9.49707H24.4951V10.4971H25.4951ZM25.4951 50H15.1729V52H25.4951V50ZM16.1729 51V10.4971H14.1729V51H16.1729ZM15.1729 9.49707H0.373047V11.4971H15.1729V9.49707ZM1.37305 10.4971V1.67871H-0.626953V10.4971H1.37305ZM0.373047 2.67871H40.2949V0.678711H0.373047V2.67871ZM39.2949 1.67871V10.4971H41.2949V1.67871H39.2949ZM40.2949 9.49707H25.4951V11.4971H40.2949V9.49707ZM24.4951 10.4971V51H26.4951V10.4971H24.4951ZM86.5742 7.38672L85.8353 8.06048L85.8371 8.06244L86.5742 7.38672ZM86.5742 45.292L85.8371 44.6163L85.8353 44.6182L86.5742 45.292ZM78.8496 14.0518L78.0596 14.6649L78.0647 14.6714L78.8496 14.0518ZM59.6748 14.0518L60.4597 14.6714L60.4619 14.6685L59.6748 14.0518ZM59.6406 38.627L58.8506 39.2401L58.8535 39.2437L59.6406 38.627ZM78.8496 38.627L78.0625 38.0102L78.0596 38.0138L78.8496 38.627ZM69.2793 1.41406C76.3389 1.41406 81.8172 3.6536 85.8353 8.06047L87.3132 6.71296C82.8546 1.82297 76.803 -0.585938 69.2793 -0.585938V1.41406ZM85.8371 8.06244C89.8877 12.4813 91.9658 18.5284 91.9658 26.3223H93.9658C93.9658 18.1656 91.7828 11.589 87.3114 6.71099L85.8371 8.06244ZM91.9658 26.3223C91.9658 34.1398 89.8873 40.1979 85.8371 44.6163L87.3114 45.9677C91.7833 41.0892 93.9658 34.5009 93.9658 26.3223H91.9658ZM85.8353 44.6182C81.8172 49.0251 76.3389 51.2646 69.2793 51.2646V53.2646C76.803 53.2646 82.8546 50.8557 87.3132 45.9657L85.8353 44.6182ZM69.2793 51.2646C62.196 51.2646 56.694 49.0244 52.6532 44.6163L51.1789 45.9677C55.6602 50.8564 61.7337 53.2646 69.2793 53.2646V51.2646ZM52.6532 44.6163C48.603 40.1979 46.5244 34.1398 46.5244 26.3223H44.5244C44.5244 34.5009 46.7069 41.0892 51.1789 45.9677L52.6532 44.6163ZM46.5244 26.3223C46.5244 18.5298 48.6131 12.4834 52.6856 8.0644L51.2148 6.70904C46.7196 11.5869 44.5244 18.1642 44.5244 26.3223H46.5244ZM52.6856 8.0644C56.751 3.65297 62.2438 1.41406 69.2793 1.41406V-0.585938C61.7771 -0.585938 55.7171 1.82359 51.2148 6.70904L52.6856 8.0644ZM79.6396 13.4386C77.0722 10.1307 73.5851 8.47168 69.2793 8.47168V10.4717C72.9943 10.4717 75.8874 11.8661 78.0596 14.6649L79.6396 13.4386ZM69.2793 8.47168C64.9737 8.47168 61.4772 10.1303 58.8877 13.435L60.4619 14.6685C62.6576 11.8664 65.5641 10.4717 69.2793 10.4717V8.47168ZM58.8899 13.4321C56.3177 16.6902 55.0859 21.0226 55.0859 26.3223H57.0859C57.0859 21.3224 58.2467 17.4745 60.4597 14.6714L58.8899 13.4321ZM55.0859 26.3223C55.0859 31.6204 56.3056 35.9609 58.8506 39.2401L60.4306 38.0138C58.2361 35.1863 57.0859 31.3236 57.0859 26.3223H55.0859ZM58.8535 39.2437C61.4442 42.55 64.953 44.207 69.2793 44.207V42.207C65.5392 42.207 62.6222 40.8107 60.4278 38.0102L58.8535 39.2437ZM69.2793 44.207C73.5851 44.207 77.0722 42.548 79.6396 39.2401L78.0596 38.0138C75.8874 40.8126 72.9943 42.207 69.2793 42.207V44.207ZM79.6367 39.2437C82.2065 35.9643 83.4385 31.6224 83.4385 26.3223H81.4385C81.4385 31.3216 80.2779 35.1829 78.0625 38.0102L79.6367 39.2437ZM83.4385 26.3223C83.4385 21.0226 82.2067 16.6902 79.6345 13.4321L78.0647 14.6714C80.2777 17.4745 81.4385 21.3224 81.4385 26.3223H83.4385ZM102.741 1.67871V0.678711H101.741V1.67871H102.741ZM135.656 6.39551L134.949 7.10263L134.954 7.10772L135.656 6.39551ZM113.063 35.6875V34.6875H112.063V35.6875H113.063ZM113.063 51V52H114.063V51H113.063ZM102.741 51H101.741V52H102.741V51ZM113.063 10.1553V9.15527H112.063V10.1553H113.063ZM113.063 27.3135H112.063V28.3135H113.063V27.3135ZM127.453 25.126L128.123 25.8688L128.123 25.8682L127.453 25.126ZM127.487 12.377L126.812 13.1145L127.487 12.377ZM102.741 2.67871H123.317V0.678711H102.741V2.67871ZM123.317 2.67871C128.175 2.67871 132.019 4.17281 134.949 7.10261L136.363 5.6884C133.004 2.32914 128.623 0.678711 123.317 0.678711V2.67871ZM134.954 7.10772C137.902 10.0133 139.407 13.8549 139.407 18.7344H141.407C141.407 13.4055 139.745 9.02117 136.358 5.6833L134.954 7.10772ZM139.407 18.7344C139.407 23.5566 137.865 27.3734 134.828 30.2828L136.211 31.727C139.691 28.3929 141.407 24.0293 141.407 18.7344H139.407ZM134.828 30.2828C131.785 33.1983 127.808 34.6875 122.805 34.6875V36.6875C128.237 36.6875 132.738 35.055 136.211 31.727L134.828 30.2828ZM122.805 34.6875H113.063V36.6875H122.805V34.6875ZM112.063 35.6875V51H114.063V35.6875H112.063ZM113.063 50H102.741V52H113.063V50ZM103.741 51V1.67871H101.741V51H103.741ZM112.063 10.1553V27.3135H114.063V10.1553H112.063ZM113.063 28.3135H120.549V26.3135H113.063V28.3135ZM120.549 28.3135C123.689 28.3135 126.263 27.5455 128.123 25.8688L126.784 24.3832C125.408 25.6231 123.379 26.3135 120.549 26.3135V28.3135ZM128.123 25.8682C130.024 24.1524 130.914 21.7334 130.914 18.7686H128.914C128.914 21.318 128.164 23.1374 126.783 24.3837L128.123 25.8682ZM130.914 18.7686C130.914 15.7881 130.04 13.3579 128.163 11.6394L126.812 13.1145C128.171 14.3582 128.914 16.1891 128.914 18.7686H130.914ZM128.163 11.6394C126.303 9.93655 123.727 9.15527 120.583 9.15527V11.1553C123.409 11.1553 125.436 11.8551 126.812 13.1145L128.163 11.6394ZM120.583 9.15527H113.063V11.1553H120.583V9.15527ZM178.894 51H177.894V52H178.894V51ZM178.894 11.7275H179.894V10.7275H178.894V11.7275ZM178.278 11.7275V10.7275H177.967L177.711 10.9042L178.278 11.7275ZM166.179 20.0674H165.179V21.9712L166.746 20.8907L166.179 20.0674ZM166.179 10.4629L165.611 9.63943L165.179 9.93751V10.4629H166.179ZM178.928 1.67871V0.678711H178.617L178.36 0.855249L178.928 1.67871ZM189.216 1.67871H190.216V0.678711H189.216V1.67871ZM189.216 51V52H190.216V51H189.216ZM179.894 51V11.7275H177.894V51H179.894ZM178.894 10.7275H178.278V12.7275H178.894V10.7275ZM177.711 10.9042L165.611 19.244L166.746 20.8907L178.846 12.5509L177.711 10.9042ZM167.179 20.0674V10.4629H165.179V20.0674H167.179ZM166.746 11.2864L179.495 2.50217L178.36 0.855249L165.611 9.63943L166.746 11.2864ZM178.928 2.67871H189.216V0.678711H178.928V2.67871ZM188.216 1.67871V51H190.216V1.67871H188.216ZM189.216 50H178.894V52H189.216V50ZM236.247 45.3945L235.45 44.7907L235.449 44.7914L236.247 45.3945ZM207.502 45.3945L206.703 45.9958L206.706 46.0002L207.502 45.3945ZM207.502 7.25L206.708 6.6424L206.707 6.64299L207.502 7.25ZM215.158 39.3105L214.273 39.7763L214.276 39.7815L215.158 39.3105ZM228.591 39.3447L227.709 38.8738L227.707 38.8762L228.591 39.3447ZM228.591 13.334L227.709 13.8053L227.713 13.8133L228.591 13.334ZM215.192 13.334L214.313 12.8575L215.192 13.334ZM235.449 44.7914C232.188 49.1036 227.708 51.2646 221.892 51.2646V53.2646C228.289 53.2646 233.379 50.8456 237.045 45.9977L235.449 44.7914ZM221.892 51.2646C216.075 51.2646 211.582 49.1034 208.298 44.7888L206.706 46.0002C210.395 50.8458 215.495 53.2646 221.892 53.2646V51.2646ZM208.301 44.7933C205.012 40.4227 203.307 34.2823 203.307 26.2539H201.307C201.307 34.5406 203.065 41.1606 206.703 45.9958L208.301 44.7933ZM203.307 26.2539C203.307 18.2478 205.012 12.1567 208.297 7.85701L206.707 6.64299C203.064 11.4123 201.307 17.9905 201.307 26.2539H203.307ZM208.296 7.8576C211.58 3.56553 216.073 1.41406 221.892 1.41406V-0.585938C215.497 -0.585938 210.397 1.81989 206.708 6.6424L208.296 7.8576ZM221.892 1.41406C227.686 1.41406 232.169 3.56447 235.453 7.8576L237.041 6.6424C233.353 1.82095 228.265 -0.585938 221.892 -0.585938V1.41406ZM235.453 7.8576C238.76 12.1808 240.477 18.2836 240.477 26.2881H242.477C242.477 18.023 240.707 11.4338 237.041 6.6424L235.453 7.8576ZM240.477 26.2881C240.477 34.2917 238.76 40.4201 235.45 44.7907L237.044 45.9983C240.706 41.1633 242.477 34.554 242.477 26.2881H240.477ZM214.276 39.7815C216.027 43.061 218.572 44.8564 221.892 44.8564V42.8564C219.469 42.8564 217.525 41.6213 216.04 38.8396L214.276 39.7815ZM221.892 44.8564C225.209 44.8564 227.745 43.0749 229.474 39.8132L227.707 38.8762C226.247 41.6302 224.316 42.8564 221.892 42.8564V44.8564ZM229.473 39.8157C231.203 36.5744 232.018 32.0193 232.018 26.2539H230.018C230.018 31.8818 229.214 36.0538 227.709 38.8738L229.473 39.8157ZM232.018 26.2539C232.018 20.5349 231.204 16.0317 229.468 12.8547L227.713 13.8133C229.214 16.5607 230.018 20.6708 230.018 26.2539H232.018ZM229.473 12.8627C227.741 9.62233 225.205 7.85645 221.892 7.85645V9.85645C224.32 9.85645 226.25 11.0756 227.709 13.8053L229.473 12.8627ZM221.892 7.85645C218.599 7.85645 216.066 9.62407 214.313 12.8575L216.072 13.8105C217.555 11.0739 219.487 9.85645 221.892 9.85645V7.85645ZM214.313 12.8575C212.58 16.0552 211.766 20.556 211.766 26.2539H213.766C213.766 20.6953 214.569 16.5828 216.072 13.8105L214.313 12.8575ZM211.766 26.2539C211.766 31.9959 212.568 36.5371 214.273 39.7763L216.043 38.8448C214.558 36.0228 213.766 31.8595 213.766 26.2539H211.766ZM284.167 45.3945L283.37 44.7907L283.369 44.7914L284.167 45.3945ZM255.422 45.3945L254.623 45.9958L254.626 46.0002L255.422 45.3945ZM255.422 7.25L254.628 6.6424L254.627 6.64299L255.422 7.25ZM263.078 39.3105L262.193 39.7763L262.196 39.7815L263.078 39.3105ZM276.511 39.3447L275.629 38.8738L275.627 38.8762L276.511 39.3447ZM276.511 13.334L275.629 13.8053L275.633 13.8133L276.511 13.334ZM263.112 13.334L262.233 12.8575L263.112 13.334ZM283.369 44.7914C280.108 49.1036 275.628 51.2646 269.812 51.2646V53.2646C276.209 53.2646 281.299 50.8456 284.965 45.9977L283.369 44.7914ZM269.812 51.2646C263.995 51.2646 259.502 49.1034 256.218 44.7888L254.626 46.0002C258.315 50.8458 263.415 53.2646 269.812 53.2646V51.2646ZM256.221 44.7933C252.932 40.4227 251.227 34.2823 251.227 26.2539H249.227C249.227 34.5406 250.984 41.1606 254.623 45.9958L256.221 44.7933ZM251.227 26.2539C251.227 18.2478 252.932 12.1567 256.217 7.85701L254.627 6.64299C250.984 11.4123 249.227 17.9905 249.227 26.2539H251.227ZM256.216 7.8576C259.5 3.56553 263.993 1.41406 269.812 1.41406V-0.585938C263.417 -0.585938 258.317 1.81989 254.628 6.6424L256.216 7.8576ZM269.812 1.41406C275.606 1.41406 280.089 3.56447 283.373 7.8576L284.961 6.6424C281.273 1.82095 276.185 -0.585938 269.812 -0.585938V1.41406ZM283.373 7.8576C286.68 12.1808 288.396 18.2836 288.396 26.2881H290.396C290.396 18.023 288.627 11.4338 284.961 6.6424L283.373 7.8576ZM288.396 26.2881C288.396 34.2917 286.68 40.4201 283.37 44.7907L284.964 45.9983C288.626 41.1633 290.396 34.554 290.396 26.2881H288.396ZM262.196 39.7815C263.947 43.061 266.492 44.8564 269.812 44.8564V42.8564C267.389 42.8564 265.445 41.6213 263.96 38.8396L262.196 39.7815ZM269.812 44.8564C273.129 44.8564 275.665 43.0749 277.394 39.8132L275.627 38.8762C274.167 41.6302 272.236 42.8564 269.812 42.8564V44.8564ZM277.393 39.8157C279.123 36.5744 279.938 32.0193 279.938 26.2539H277.938C277.938 31.8818 277.134 36.0538 275.629 38.8738L277.393 39.8157ZM279.938 26.2539C279.938 20.5349 279.124 16.0317 277.388 12.8547L275.633 13.8133C277.134 16.5607 277.938 20.6708 277.938 26.2539H279.938ZM277.393 12.8627C275.661 9.62233 273.125 7.85645 269.812 7.85645V9.85645C272.24 9.85645 274.17 11.0756 275.629 13.8053L277.393 12.8627ZM269.812 7.85645C266.519 7.85645 263.986 9.62407 262.233 12.8575L263.991 13.8105C265.475 11.0739 267.407 9.85645 269.812 9.85645V7.85645ZM262.233 12.8575C260.5 16.0552 259.686 20.556 259.686 26.2539H261.686C261.686 20.6953 262.489 16.5828 263.991 13.8105L262.233 12.8575ZM259.686 26.2539C259.686 31.9959 260.488 36.5371 262.193 39.7763L263.963 38.8448C262.478 36.0228 261.686 31.8595 261.686 26.2539H259.686Z" fill="#4F3120" mask="url(#path-1-outside-1_107_206)"/>
</svg>
